<?xml version="1.0" encoding="utf-8"?>
<!-- Generator: Adobe Illustrator 27.5.0, SVG Export Plug-In . SVG Version: 6.00 Build 0)  -->
<svg version="1.1" xmlns="http://www.w3.org/2000/svg" xmlns:xlink="http://www.w3.org/1999/xlink" x="0px" y="0px"
	 viewBox="0 0 500 500" style="enable-background:new 0 0 500 500;" xml:space="preserve">
<g id="BACKGROUND">
	<rect style="fill:#FFFFFF;" width="500" height="500"/>
</g>
<g id="OBJECTS">
	<g>
		<g>
			<path style="fill:#DCEDF9;" d="M428.198,427.629c-22.722-17.263-61.583-60.1-10.408-127.346
				c63.284-83.158-12.504-117.275-85.15-113.714c-58.444,2.865-124.218-70.609-189.831-57.477
				c-87.088,17.43-30.541,92.426-89.589,132.831C2.861,296.38,24.482,401.374,90.022,427.629H428.198z"/>
		</g>
		<path style="fill:#DCEDF9;" d="M469.208,275.132c-0.351-12.331-11.838-17.115-19.505-8.187
			c-4.399,5.121-8.592,12.467-9.376,22.292c-1.756,21.985,17.479,15.615,24.666,3.843
			C468.059,288.059,469.385,281.365,469.208,275.132z"/>
		<path style="fill:#DCEDF9;" d="M257.55,124.737c-12.121-2.294-19.25,7.905-12.168,17.304c4.062,5.392,10.342,11.059,19.772,13.925
			c21.102,6.415,18.99-13.737,9.028-23.274C269.932,128.623,263.677,125.896,257.55,124.737z"/>
		<path style="fill:#DCEDF9;" d="M57.213,237.72c4.85-11.343-3.575-20.5-14.278-15.609c-6.14,2.806-13.026,7.719-17.856,16.31
			c-10.808,19.225,9.325,21.503,20.785,13.828C50.751,248.975,54.761,243.453,57.213,237.72z"/>
	</g>
	<g>
		<ellipse style="fill:#DCEDF9;" cx="250.367" cy="430.99" rx="207.76" ry="13.677"/>
	</g>
	<g>
		<g>
			<g>
				<g>
					<path style="fill:#0077EB;" d="M452.528,318.783c-12.721,12.716,1.468,13.794-7.865,23.397
						c-8.508,8.753-21.062,0.233-20.226,21.612c0.183,4.676-3.221,8.146-7.995,9.924c-7.857,2.923-15.543,0.219-20.277-5.155
						c-0.385-0.433-0.751-0.887-1.094-1.358c-3.593-4.903-4.903-11.548-2.241-18.134c2.16-5.344,5.985-10.601,12.764-12.696
						c15.904-4.916,7.076-25.98,20.519-26.905c16.212-1.116,16.793-7.062,28.299-15.077
						C466.609,285.892,469.768,301.551,452.528,318.783z"/>
				</g>
				<g>
					<g>
						<path style="fill:#0059D3;" d="M446.825,311.835c-0.355,0.366-29.85,30.776-50.661,56.725
							c-0.385-0.433-0.751-0.887-1.094-1.358c20.867-25.964,50.178-56.188,50.535-56.554c0.328-0.337,0.866-0.344,1.203-0.017
							C447.146,310.959,447.153,311.498,446.825,311.835z"/>
					</g>
				</g>
			</g>
			<g>
				<g>
					<path style="fill:#008EFF;" d="M455.794,361.232c-19.929,11.732-2.615,17.643-17.324,26.591
						c-13.409,8.156-26.292-6.492-32.136,20.389c-1.279,5.88-6.633,9.103-13.148,9.778c-10.721,1.108-19.418-4.733-23.581-12.947
						c-0.34-0.663-0.649-1.346-0.924-2.043c-2.893-7.26-2.385-15.953,3.05-23.294c4.409-5.956,10.864-11.268,19.977-11.693
						c21.38-0.997,17.175-30.061,34.206-26.882c20.539,3.831,23.177-3.382,40.081-9.655
						C483.912,324.826,482.803,345.334,455.794,361.232z"/>
				</g>
				<g>
					<g>
						<path style="fill:#0077EB;" d="M450.932,350.748c-0.56,0.342-47.068,28.697-81.328,54.296
							c-0.34-0.663-0.649-1.346-0.924-2.043c34.336-25.599,80.553-53.782,81.116-54.123c0.516-0.314,1.189-0.149,1.503,0.367
							S451.449,350.434,450.932,350.748z"/>
					</g>
				</g>
			</g>
		</g>
		<g>
			<g>
				<g>
					<path style="fill:#0077EB;" d="M67.125,173.516c6.838,16.635-6.67,12.163-1.759,24.621
						c4.478,11.356,19.345,8.332,10.336,27.737c-1.971,4.245-0.167,8.759,3.554,12.238c6.123,5.725,14.258,6.192,20.698,3.057
						c0.522-0.251,1.035-0.53,1.533-0.832c5.205-3.14,8.975-8.766,9.056-15.87c0.066-5.763-1.438-12.089-6.886-16.634
						c-12.782-10.665,3.482-26.701-8.567-32.734c-14.53-7.277-12.775-12.988-20.303-24.818
						C66.807,137.74,57.857,150.971,67.125,173.516z"/>
				</g>
				<g>
					<g>
						<path style="fill:#0059D3;" d="M75.065,169.303c0.187,0.475,15.685,39.902,24.888,71.867c0.522-0.251,1.035-0.53,1.533-0.832
							c-9.25-32-24.65-71.184-24.838-71.66c-0.172-0.437-0.667-0.651-1.104-0.479C75.107,168.371,74.892,168.865,75.065,169.303z"/>
					</g>
				</g>
			</g>
			<g>
				<g>
					<path style="fill:#008EFF;" d="M47.653,216.97c14.421,18.078-3.863,17.412,6.679,31.026
						c9.609,12.409,26.876,3.332,22.729,30.526c-0.907,5.949,2.942,10.872,8.786,13.831c9.617,4.866,19.827,2.519,26.65-3.666
						c0.554-0.498,1.087-1.026,1.593-1.578c5.297-5.747,7.928-14.048,5.475-22.846c-1.99-7.138-6.121-14.406-14.48-18.059
						c-19.612-8.571-5.299-34.213-22.342-37.33c-20.552-3.761-20.439-11.441-33.985-23.34C34.4,172.919,28.108,192.47,47.653,216.97
						z"/>
				</g>
				<g>
					<g>
						<path style="fill:#0077EB;" d="M55.94,208.914c0.401,0.519,33.706,43.621,56.557,79.772c0.554-0.498,1.087-1.026,1.593-1.578
							c-22.922-36.178-56.017-79.015-56.421-79.535c-0.37-0.478-1.057-0.564-1.535-0.194
							C55.657,207.749,55.57,208.437,55.94,208.914z"/>
					</g>
				</g>
			</g>
		</g>
		<g>
			<path style="fill:#008EFF;" d="M144.921,201.232c5.81-3.978,20.36,5.835,27.968,17.75l-6.75-18.908
				c-2.443-2.119-6.719-5.092-13.403-7.46c-10.393-3.684-20.811-9.454-14.99-13.44c5.454-3.735,18.612,4.686,26.498,15.59
				l-8.668-24.282c-1.612-1.24-4.067-2.747-7.574-3.99c-6.55-2.322-13.115-5.958-9.447-8.47c3.183-2.18,10.53,2.21,15.546,8.328
				l-2.809-7.87c-1.285-2.286-3.112-5.554-5.992-8.533c-6.673-6.904-11.719-14.671-6.572-15.796
				c5.151-1.126,13.581,12.403,14.908,24.626l1.446,4.05c-1.122-8.891,2.074-19.655,6.531-20.036
				c4.429-0.379,1.651,6.593-1.948,12.538c-2.74,4.525-3.496,8.116-3.699,9.974l6.828,19.128
				c-1.738-14.084,3.325-31.069,10.378-31.672c7.028-0.601,2.62,10.462-3.091,19.894c-4.316,7.128-5.532,12.798-5.864,15.764
				l8.188,22.938c-1.452-13.917,3.527-30.809,10.47-30.864c5.353-0.042,3.714,7.516-2.68,18.186
				c-4.345,7.251-5.735,13.763-6.179,17.191l3.857,10.804c-0.646,0.457-1.318,0.696-1.986,0.709l-1.535-4.299
				c-2.168-2.097-6.683-5.66-14.442-8.41C149.518,210.988,139.101,205.218,144.921,201.232z"/>
		</g>
		<g>
			<path style="fill:#008EFF;" d="M93.803,361.479c-5.96,3.749-2.74,21.001,5.169,32.719l-14.667-13.71
				c-0.973-3.084-2.001-8.19-1.518-15.264c0.751-11.001-0.402-22.854-6.373-19.098c-5.595,3.52-3.099,18.941,3.772,30.511
				l-18.835-17.606c-0.497-1.973-0.904-4.824-0.65-8.536c0.474-6.933-0.254-14.403-4.016-12.036
				c-3.266,2.054-2.158,10.541,1.462,17.576l-6.105-5.706c-1.587-2.088-3.859-5.063-5.448-8.891
				c-3.683-8.868-8.803-16.585-11.882-12.31c-3.081,4.279,5.982,17.393,16.67,23.469l3.141,2.936
				c-7.712-4.564-18.859-5.91-20.981-1.972c-2.108,3.914,5.393,4.136,12.279,3.197c5.242-0.715,8.837,0.018,10.622,0.57
				L71.281,371.2c-12.233-7.193-29.831-9.3-33.188-3.068c-3.345,6.21,8.558,6.563,19.483,5.072
				c8.257-1.127,13.942,0.012,16.796,0.886l17.792,16.631c-12.194-6.865-29.672-9.011-32.483-2.662
				c-2.167,4.895,5.42,6.396,17.752,4.771c8.381-1.105,14.908,0.209,18.231,1.164l8.381,7.834c0.676-0.411,1.163-0.933,1.44-1.54
				l-3.335-3.117c-1.062-2.823-2.537-8.383-1.976-16.595C100.927,369.575,99.774,357.723,93.803,361.479z"/>
		</g>
	</g>
	<g>
		<rect x="76.492" y="206.893" style="fill:#FFAA01;" width="318.094" height="219.728"/>
		<polygon style="fill:#F88800;" points="394.576,206.901 394.576,220.987 235.54,361.947 76.493,220.987 76.493,206.901 
			235.529,348.344 		"/>
		<g>
			<polygon style="fill:#F88800;" points="204.894,320.606 85.705,426.621 76.492,426.621 76.492,421.02 198.043,312.908 			"/>
		</g>
		<g>
			<g>
				<polygon style="fill:#F88800;" points="394.586,421.763 394.586,426.621 384.539,426.621 265.349,320.606 272.201,312.908 				
					"/>
			</g>
		</g>
		<polygon style="fill:#FDCC50;" points="76.483,206.891 235.53,348.344 394.577,206.891 		"/>
	</g>
	<g>
		<g>
			<g>
				<polygon style="fill:#F9AF8B;" points="306.827,187.103 310.886,195.788 302.305,195.921 298.995,188.018 				"/>
				<g>
					<g>
						<g>
							<path style="fill:#008EFF;" d="M308.184,195.245c0,0,1.762-2.367,3.162-2.266c1.4,0.101,12.197,8.686,15.896,9.394
								c3.699,0.709,3.356,4.477,1.808,4.477c-4.458,0-29.06,0.041-29.06,0.041s-0.744-8.801,0.198-11.425
								C301.129,192.842,305.292,195.866,308.184,195.245z"/>
						</g>
						<g>
							<g>
								<path style="fill:#FFFFFF;" d="M314.153,201.235c-0.131,0.039-0.277,0.027-0.405-0.046
									c-0.249-0.142-0.335-0.458-0.194-0.706c0.047-0.083,1.177-2.045,2.698-2.811c2.023-1.022,3.6,0.122,3.667,0.171
									c0.23,0.17,0.278,0.495,0.107,0.725c-0.17,0.23-0.495,0.278-0.725,0.107c-0.043-0.031-1.141-0.802-2.582-0.077
									c-1.239,0.624-2.254,2.382-2.264,2.399C314.385,201.116,314.275,201.198,314.153,201.235z"/>
							</g>
							<g>
								<path style="fill:#FFFFFF;" d="M312.608,199.776c-0.13,0.039-0.277,0.027-0.405-0.046c-0.249-0.142-0.335-0.458-0.194-0.707
									c0.047-0.083,1.177-2.045,2.698-2.811c2.024-1.022,3.6,0.121,3.667,0.171c0.23,0.17,0.278,0.495,0.107,0.725
									c-0.17,0.23-0.495,0.278-0.725,0.106c-0.043-0.031-1.142-0.802-2.582-0.077c-1.244,0.627-2.253,2.381-2.263,2.399
									C312.841,199.656,312.731,199.739,312.608,199.776z"/>
							</g>
							<g>
								<path style="fill:#FFFFFF;" d="M316.246,202.419c-0.131,0.039-0.277,0.027-0.405-0.046
									c-0.249-0.142-0.335-0.458-0.194-0.707c0.047-0.083,1.177-2.045,2.698-2.812c2.024-1.023,3.6,0.122,3.667,0.171
									c0.23,0.17,0.277,0.495,0.107,0.725c-0.17,0.229-0.495,0.278-0.725,0.107c-0.043-0.031-1.142-0.802-2.582-0.077
									c-1.244,0.627-2.253,2.381-2.263,2.399C316.479,202.3,316.369,202.382,316.246,202.419z"/>
							</g>
						</g>
					</g>
				</g>
			</g>
			<g>
				<g>
					<g>
						<g>
							<g>
								<path style="fill:#2E3052;" d="M309.272,189.934l-3.801,1.24l-2.113,0.126l-3.632,0.213
									c-4.799-3.795-17.744-15.217-20.266-21.951c0,0-16.656,38.733-39.685,38.733c-1.494,0,2.454-19.274,6.208-23.282
									c0,0,21.226-39.559,34.987-35.36C287.132,151.533,293.365,160.504,309.272,189.934z"/>
							</g>
						</g>
					</g>
				</g>
				<g>
					<path style="fill:#001030;" d="M305.47,191.174l-2.113,0.126c-14.126-10.696-20.67-19.754-23.683-25.556
						c-0.104-0.202-0.273-0.267-0.387-0.264c-0.098,0.003-0.169,0.057-0.215,0.172c-6.764,15.923-14.881,25.479-20.501,30.695
						c-6.124,5.682-10.603,7.555-10.789,7.634l-0.259-0.633l-0.259-0.63c0.044-0.019,4.488-1.887,10.445-7.433
						c5.502-5.12,13.458-14.51,20.108-30.169c0.254-0.603,0.785-0.976,1.418-1.001c0.681-0.027,1.32,0.365,1.649,0.998
						C283.923,170.965,290.652,180.21,305.47,191.174z"/>
				</g>
				<path style="fill:#524E84;" d="M295.917,188.922c0.604,1.13,1.643,2.727,2.636,3.499c0,0,8.134-0.376,12.09-2.363l-1.775-4.135
					C308.868,185.923,302.392,188.286,295.917,188.922z"/>
			</g>
		</g>
		<g>
			<g>
				<g>
					<path style="fill:#0077EB;" d="M306.563,133.396c-11.567,4.711-20.812,7.08-28.68,8.055c0,0-0.005-0.003-0.016-0.003
						c-0.101,0.003-1.953,0.153-2.665,0.125c-2.119-0.073-4.989-0.554-7.896-1.911c-2.07-0.967-5.028-3.466-8.122-6.445
						c-3.832-3.697-7.873-8.132-10.667-11.302c-2.174-2.462-3.596-4.16-3.596-4.16c1.929-2.87,6.201-5.481,9.919-6.877
						c0,0,7.758,12.919,19.512,19.263c0.64,0.348,1.292,0.671,1.955,0.97c2.678-0.434,9.924-0.764,13.065-0.988
						c8.515-0.606,15.467-2.082,15.467-2.082L306.563,133.396z"/>
				</g>
			</g>
			<g>
				<g>
					<g>
						<path style="fill:#F9AF8B;" d="M304.546,127.615c0,0,1.611-4.068,3.802-5.23c2.191-1.161,8.428-5.249,9.759-4.026
							c1.331,1.223,1.056,7.098-4.535,12.008c-3.561,3.128-7.149,2.995-7.149,2.995L304.546,127.615z"/>
					</g>
					<g>
						<g>
							<path style="fill:#001030;" d="M318.506,122.096l-9.205,8.6c-0.346,0.325-0.971,0.419-1.398,0.212l-5.642-2.727
								c-0.175-0.086-0.29-0.208-0.339-0.347l-0.013-0.045l-0.277-0.943l1.496-0.567l14.483-5.501l0.785-0.296l0.294,0.996
								l0.023,0.069c0.004,0.008,0.006,0.015,0.003,0.025C318.75,121.746,318.68,121.936,318.506,122.096z"/>
						</g>
						<g>
							<path style="fill:#1F2232;" d="M317.612,120.777l-14.483,5.501l8.191-7.654c0.345-0.322,0.971-0.418,1.395-0.213
								L317.612,120.777z"/>
						</g>
						<g>
							<g>
								<path style="fill:#2E3052;" d="M307.623,129.952l-5.644-2.729c-0.425-0.206-0.491-0.634-0.146-0.956l9.206-8.6
									c0.345-0.322,0.97-0.417,1.395-0.211l5.644,2.729c0.425,0.206,0.491,0.634,0.145,0.956l-9.205,8.6
									C308.672,130.063,308.048,130.157,307.623,129.952z"/>
							</g>
						</g>
						<g>
							<path style="fill:#2E3052;" d="M308.307,128.411l-4.373-2.114c-0.426-0.206-0.491-0.634-0.146-0.956l7.159-6.688
								c0.345-0.322,0.97-0.417,1.395-0.211l4.373,2.115c0.425,0.206,0.491,0.634,0.146,0.956l-7.159,6.688
								C309.357,128.522,308.733,128.616,308.307,128.411z"/>
						</g>
						<g>
							<path style="fill:#1F2232;" d="M318.721,121.569l-0.004,0.002c0.003-0.009,0.002-0.017-0.003-0.025L318.721,121.569z"/>
						</g>
					</g>
					<g>
						<path style="fill:#F9AF8B;" d="M308.191,120.327c0,0,1.311,0.205,1.445,1.332c0.133,1.128-1.086,0.679-1.871,0.431
							c-0.784-0.248-1.491,0.001-1.599,0.128C305.824,122.622,305.883,119.993,308.191,120.327z"/>
					</g>
					<g>
						<path style="fill:#F9AF8B;" d="M314.053,126.449c0,0,2.058-3.382,3.635-5.229c1.051-1.231,1.587,0.554,0.868,1.799
							C317.836,124.264,316.418,126.799,314.053,126.449z"/>
					</g>
				</g>
			</g>
		</g>
		<g>
			<g>
				<g>
					<g>
						<g>
							<path style="fill:#008EFF;" d="M218.19,187.415l-4.56-29.397l-0.27-1.742l0.031-1.313l1.016-41.645l11.554-3.905l0.619-0.211
								l2.595-0.879l2.057-0.694l12.199,1.679l1.986,0.273l0.699,0.096l8.728,1.201c0.081,27.608-2.569,33.573,2.532,56.031
								C259.944,175.38,250.522,205.38,218.19,187.415z"/>
						</g>
					</g>
				</g>
			</g>
			<g>
				<g>
					<path style="fill:#0077EB;" d="M224.685,179.894c0.001,0,0.001,0,0.002-0.001c9.135-2.551,15.8-8.856,19.782-13.696
						c4.307-5.235,6.495-9.942,6.517-9.989c0.105-0.229,0.005-0.5-0.224-0.605c-0.229-0.105-0.5-0.005-0.605,0.223
						c-0.021,0.046-2.171,4.664-6.409,9.81c-3.897,4.732-10.409,10.893-19.307,13.378c-0.243,0.068-0.385,0.319-0.317,0.562
						C224.192,179.818,224.443,179.96,224.685,179.894z"/>
				</g>
			</g>
			<g>
				<g>
					<path style="fill:#0077EB;" d="M235.07,180.385c7.937-2.179,14.61-8.874,14.913-9.181c0.177-0.18,0.175-0.469-0.005-0.646
						c-0.179-0.177-0.468-0.174-0.645,0.005c-0.078,0.079-7.932,7.954-16.423,9.367c-0.253,0.04-0.417,0.277-0.375,0.525
						c0.041,0.249,0.276,0.417,0.525,0.375C233.737,180.717,234.408,180.567,235.07,180.385z"/>
				</g>
			</g>
			<g>
				<g>
					<path style="fill:#0077EB;" d="M229.453,121.662c7.932-2.199,14.588-8.911,14.89-9.219c0.176-0.18,0.174-0.469-0.006-0.646
						c-0.18-0.176-0.469-0.173-0.645,0.006c-0.078,0.079-7.912,7.974-16.4,9.408c-0.252,0.04-0.416,0.278-0.374,0.526
						c0.042,0.249,0.277,0.416,0.526,0.374C228.12,121.997,228.791,121.845,229.453,121.662z"/>
				</g>
			</g>
		</g>
		<g>
			<g>
				<polygon style="fill:#F9AF8B;" points="299.055,263.499 302.249,270.609 295.699,273.426 291.889,266.082 				"/>
				<g>
					<g>
						<g>
							<path style="fill:#008EFF;" d="M300.819,270.458c0,0,0.67-2.874,1.994-3.34c1.324-0.466,14.651,3.092,18.325,2.264
								c3.675-0.827,4.104,1.956,4.038,3.503c-0.066,1.547-27.262,11.303-27.262,11.303s-4.153-7.551-4.338-10.334
								C293.391,271.073,298.415,272.182,300.819,270.458z"/>
						</g>
						<g>
							<g>
								<path style="fill:#FFFFFF;" d="M308.682,273.566c-0.104,0.088-0.243,0.135-0.39,0.12c-0.285-0.031-0.49-0.286-0.46-0.57
									c0.01-0.095,0.262-2.345,1.35-3.655c1.446-1.745,3.349-1.326,3.43-1.308c0.279,0.064,0.452,0.343,0.387,0.622
									c-0.064,0.279-0.343,0.452-0.622,0.387c-0.052-0.011-1.367-0.279-2.398,0.961c-0.887,1.067-1.115,3.083-1.117,3.104
									C308.848,273.364,308.78,273.483,308.682,273.566z"/>
							</g>
							<g>
								<path style="fill:#FFFFFF;" d="M306.684,272.845c-0.104,0.088-0.243,0.135-0.39,0.119c-0.284-0.031-0.49-0.286-0.46-0.571
									c0.01-0.095,0.262-2.345,1.35-3.655c1.448-1.746,3.349-1.327,3.43-1.308c0.279,0.064,0.452,0.343,0.387,0.622
									c-0.064,0.279-0.343,0.453-0.622,0.387c-0.052-0.011-1.367-0.279-2.398,0.961c-0.89,1.072-1.115,3.083-1.117,3.103
									C306.85,272.643,306.782,272.762,306.684,272.845z"/>
							</g>
							<g>
								<path style="fill:#FFFFFF;" d="M311.075,273.816c-0.104,0.088-0.243,0.135-0.39,0.12c-0.285-0.031-0.491-0.286-0.46-0.57
									c0.01-0.095,0.262-2.345,1.35-3.655c1.447-1.746,3.349-1.326,3.43-1.308c0.279,0.064,0.452,0.343,0.387,0.622
									c-0.064,0.278-0.343,0.452-0.622,0.387c-0.052-0.011-1.368-0.279-2.398,0.961c-0.89,1.072-1.115,3.083-1.117,3.103
									C311.241,273.613,311.173,273.733,311.075,273.816z"/>
							</g>
						</g>
					</g>
				</g>
			</g>
			<g>
				<g>
					<g>
						<g>
							<g>
								<path style="fill:#2E3052;" d="M300.704,264.877c-0.679,0.771-2.776,1.941-5.06,2.964c-0.414,0.188-0.84,0.368-1.26,0.543
									c-0.741,0.305-1.478,0.583-2.17,0.821c0,0-15.538-28.639-21.501-49.407c0,0-52.594-6.495-54.416-24.915
									c-0.063-0.616-0.065-1.246-0.008-1.892c0.156-1.756,0.764-3.61,1.9-5.573c1.2-2.067,19.2-0.052,28.926,2.677
									c0,0,26.366,10.271,36.113,20.852C288.162,216.301,300.704,264.877,300.704,264.877z"/>
							</g>
						</g>
					</g>
					<g>
						<path style="fill:#001030;" d="M295.644,267.841c-0.414,0.188-0.84,0.368-1.26,0.543
							c-7.858-13.006-18.769-43.39-21.201-50.683c-0.164-0.493-0.586-0.862-1.104-0.96c-25.553-4.804-40.276-11.506-48.128-16.283
							c-3.46-2.105-5.93-4.024-7.653-5.576c-0.063-0.616-0.065-1.246-0.008-1.892c1.672,1.633,4.371,3.885,8.526,6.396
							c7.752,4.687,22.287,11.271,47.518,16.016c1.003,0.188,1.824,0.905,2.146,1.868
							C276.91,224.568,287.865,255.089,295.644,267.841z"/>
					</g>
				</g>
				<path style="fill:#524E84;" d="M289.408,266.203l2.481,3.968c0,0,6.179-1.068,10.36-5.294l-1.545-3.545
					C300.704,261.332,293.188,265.037,289.408,266.203z"/>
			</g>
		</g>
		<g>
			<path style="fill:#F9AF8B;" d="M205.7,198.288c0,0,3.579,4.853,3.284,7.365s-3.536,7.243-6.127,7.472
				c-2.591,0.228,2.977-6.081,1.663-5.877c-1.59,0.246-12.325,9.054-14.59,9.054c-2.266,0,2.665-4.094,4.586-5.128
				c0,0-5.079,2.271-6.261,3.453c-1.182,1.182-2.04-1.353,3.869-4.948c0,0-5.421,3.077-5.79,3.126
				c-1.206,0.161,2.234-3.872,5.196-5.331c0,0-4.345,2.116-4.787,2.125c-0.611,0.013,0.7-1.409,3.925-3.196
				c2.901-1.608,7.655-8.991,7.655-8.991L205.7,198.288z"/>
			<g>
				<path style="fill:#0077EB;" d="M214.406,113.318c0,0-12.047,23.139-14.79,47.341l-1.292,36.751c0,0,1.238,2.619,7.377,0.878
					l5.938-36.746l4.55-16.813C216.188,144.728,218.256,124.038,214.406,113.318z"/>
			</g>
		</g>
		<g>
			<path style="fill:#2E3052;" d="M251.407,88.299c-1.28,7.239-8.186,12.071-15.425,10.791c-7.239-1.28-12.071-8.186-10.791-15.425
				c1.28-7.239,8.186-12.071,15.425-10.791C247.855,74.154,252.686,81.06,251.407,88.299z"/>
			<path style="fill:#2E3052;" d="M251.608,85.911c0,0,3.893-0.368,4.041-4.058c0.125-3.14-3.828-1.789-3.088-4.129
				c0.74-2.341,1.829-4.395-1.165-5.542c-2.619-1.003-2.993,0.847-6.077-2.479c-3.644-3.929-8.179,2.875-11.973,2.433
				c-5.596-0.652-6.848,2.356-7.836,4.765c-0.988,2.409,0.834,4.543,0.834,4.543L251.608,85.911z"/>
			<g>
				<path style="fill:#FC8664;" d="M248.556,91.578c0,0,2.566-2.402,3.705,0.161c1.139,2.562-2.239,8.938-5.727,6.619
					L248.556,91.578z"/>
				<g>
					<path style="fill:#FD664D;" d="M247.729,96.414c0.14,0.025,0.284-0.045,0.349-0.179c0.955-1.984,3.267-2.448,3.29-2.452
						c0.176-0.034,0.291-0.203,0.258-0.379c-0.033-0.176-0.203-0.291-0.378-0.258c-0.108,0.02-2.655,0.524-3.754,2.809
						c-0.077,0.161-0.01,0.355,0.152,0.433C247.672,96.4,247.7,96.409,247.729,96.414z"/>
				</g>
				<g>
					<g>
						<path style="fill:#FD664D;" d="M250.097,95.749c0.059,0.011,0.122,0.005,0.182-0.02c0.165-0.069,0.243-0.259,0.174-0.424
							c-0.012-0.028-0.291-0.679-1.028-1.179c-0.147-0.101-0.35-0.062-0.451,0.087c-0.1,0.148-0.062,0.35,0.087,0.451
							c0.57,0.386,0.791,0.887,0.793,0.892C249.899,95.66,249.993,95.73,250.097,95.749z"/>
					</g>
				</g>
			</g>
			<path style="fill:#F9AF8B;" d="M231.259,101.572l-1.189,6.724c0,0,2.241,3.452,4.911,4.165c2.667,0.715,4.884-2.212,4.884-2.212
				l1.143-6.466L231.259,101.572z"/>
			<path style="fill:#FC8664;" d="M231.259,101.572l-0.527,2.983c1.463,2.341,4.605,3.417,9.512,3.556l0.765-4.328L231.259,101.572z
				"/>
			<path style="fill:#F9AF8B;" d="M227.223,83.05c-0.337,2.635-0.666,5.947-0.629,8.648c0.009,0.674,0.042,1.312,0.101,1.889
				c0.539,5.205,2.576,14.327,13.111,12.54c4.652-0.788,7.542-5.305,9.323-10.102c1.208-3.258,1.902-6.644,2.288-9.083
				c0.391-2.49-0.563-4.998-2.506-6.603c-5.263-4.35-11.653-4.204-15.992-3.361C229.906,77.562,227.611,80.012,227.223,83.05z"/>
			<path style="fill:#2E3052;" d="M243.42,91.575c-0.127,0.718,0.14,1.365,0.596,1.446c0.456,0.081,0.929-0.436,1.056-1.153
				c0.127-0.718-0.14-1.365-0.597-1.446C244.019,90.341,243.547,90.857,243.42,91.575z"/>
			<path style="fill:#2E3052;" d="M233.744,89.865c-0.127,0.718,0.14,1.365,0.597,1.446c0.456,0.081,0.929-0.436,1.056-1.154
				c0.127-0.718-0.14-1.365-0.596-1.446C234.344,88.631,233.871,89.147,233.744,89.865z"/>
			<path style="fill:#2E3052;" d="M247.639,88.205c0,0-3.199-1.967-6.05-1.291l0.004,1.269c0,0,2.981-0.133,5.605,1.41
				C247.473,89.057,247.76,88.827,247.639,88.205z"/>
			<path style="fill:#2E3052;" d="M231.9,85.423c0,0,3.68-0.751,6.126,0.861l-0.438,1.19c0,0-2.755-1.147-5.748-0.596
				C231.764,86.28,231.574,85.966,231.9,85.423z"/>
			<g>
				<g>
					<path style="fill:#FC8664;" d="M237.938,95.88c-0.539-0.095-1.036-0.399-1.113-0.448c-0.151-0.096-0.196-0.296-0.101-0.447
						c0.095-0.152,0.296-0.197,0.447-0.102c0.268,0.168,0.928,0.474,1.26,0.348c0.064-0.025,0.155-0.079,0.21-0.27
						c0.313-1.095,0.668-4.888,0.672-4.926c0.016-0.178,0.175-0.309,0.353-0.293c0.179,0.016,0.31,0.174,0.293,0.353
						c-0.015,0.159-0.365,3.892-0.694,5.044c-0.124,0.434-0.396,0.619-0.602,0.698C238.436,95.923,238.183,95.923,237.938,95.88z"/>
				</g>
			</g>
			<path style="fill:#FFFFFF;" d="M241.611,98.545c-0.493,1.267-1.788,3.531-4.711,3.014c-2.93-0.518-3.361-2.872-3.375-4.443
				L241.611,98.545z"/>
			<g>
				<path style="fill:#FC8664;" d="M236.645,103.233c-0.827-0.146-1.454-0.689-1.48-0.712c-0.135-0.118-0.148-0.323-0.03-0.458
					c0.118-0.135,0.323-0.148,0.458-0.03c0.005,0.004,0.521,0.447,1.165,0.561c0.591,0.104,1.217-0.135,1.223-0.137
					c0.166-0.066,0.355,0.015,0.421,0.182c0.066,0.166-0.015,0.355-0.182,0.421C238.188,103.073,237.425,103.371,236.645,103.233z"
					/>
			</g>
			<path style="fill:#2E3052;" d="M248.508,93.767c0.474-1.275,1.013-2.933,0.994-3.835c-0.038-1.597-1.155-2.73-0.467-4.142
				c0.69-1.418-0.6-3.294-1.712-3.764c-1.109-0.473-3.915-0.375-6.354-2.109c-2.328-1.657-6.898-1.574-7.906-0.071
				c-1.22,1.821-0.068,2.217-2.822,3.932c-1.097,0.684-0.364,3.093-0.458,4.559c-0.045,0.674-0.091,0.999-0.243,1.705l-0.073,0.359
				l-2.845-0.503c0.081-2.285,0.336-4.775,0.601-6.849c0.389-3.038,2.685-5.486,5.696-6.071c4.34-0.843,10.728-0.991,15.993,3.361
				c1.941,1.606,2.896,4.112,2.504,6.602c-0.304,1.934-0.805,4.465-1.603,7.057L248.508,93.767z"/>
			<g>
				<path style="fill:#F9AF8B;" d="M227.664,91.35c0.14-0.742,0.219-1.496,0.219-2.252c-0.001-1.033-0.131-1.994-1.082-2.593
					c-0.766-0.482-1.645-0.644-2.437,0.175c-1.949,2.016-1.488,9.444,2.584,8.462L227.664,91.35z"/>
				<g>
					<g>
						<path style="fill:#FC8664;" d="M226.583,92.938c-0.132-0.052-0.219-0.186-0.205-0.334c0.216-2.191-1.517-3.79-1.535-3.806
							c-0.132-0.12-0.143-0.325-0.023-0.458c0.12-0.133,0.325-0.143,0.458-0.024c0.081,0.073,1.995,1.828,1.746,4.351
							c-0.018,0.178-0.176,0.308-0.355,0.291C226.639,92.955,226.61,92.948,226.583,92.938z"/>
					</g>
				</g>
				<g>
					<path style="fill:#FC8664;" d="M224.906,91.137c-0.056-0.022-0.107-0.06-0.145-0.112c-0.105-0.145-0.072-0.348,0.072-0.453
						c0.024-0.017,0.602-0.429,1.491-0.472c0.178-0.009,0.331,0.129,0.34,0.308c0.009,0.179-0.129,0.331-0.308,0.34
						c-0.688,0.034-1.138,0.346-1.142,0.349C225.121,91.165,225.005,91.176,224.906,91.137z"/>
				</g>
			</g>
		</g>
	</g>
	<g>
		<g>
			<path style="fill:#F9AF8B;" d="M377.917,245.057c0,0-4.381,8.311-9.54,14.895c-1.522,1.942-3.11,3.733-4.676,5.116
				c-2.536,2.244-5.01,3.417-7.024,2.422c-7.472-3.69-24.129-33.059-24.129-33.059l4.102-4.767c0,0,7.414,8.387,12.835,13.407
				c5,4.629,8.845,8.089,8.845,8.089c0.692-1.032,1.43-2.163,2.196-3.36c0.815-1.27,1.661-2.615,2.522-3.998
				c6.243-10.042,13.761-21.026,13.761-21.026L377.917,245.057z"/>
			<path style="fill:#F9AF8B;" d="M337.738,232.548c0,0,1.691-2.776,1.037-5.262c-0.654-2.486-1.289-8.106-4.005-7.954
				c-0.992,0.056,0.457,2.404-0.208,4.578c0,0-2.908-1.401-4.855-2.839c-1.713-1.265-5.259-3.32-6.908-4.26
				c-0.452-0.257-0.974,0.237-0.712,0.68c0.423,0.716,1.457,1.787,3.849,3.283c0,0-5.941-3.327-6.936-2.596
				c-0.995,0.731,6.51,4.756,6.51,4.756s-6.061-2.449-6.556-1.553c-0.302,0.546,5.641,4.038,5.641,4.038s-5.904-1.823-4.807-0.44
				c0.319,0.403,11.534,5.478,13.871,11.371C333.657,236.35,336.925,234.56,337.738,232.548z"/>
			<path style="fill:#FC8664;" d="M368.378,259.952c-1.522,1.942-3.11,3.733-4.676,5.116l-3.175-17.269
				c0.815-1.27,1.661-2.615,2.522-3.998L368.378,259.952z"/>
			<g>
				<path style="fill:#008EFF;" d="M377.036,222.001l-15.79,22.774l5.025,20.293l12.39-19.766
					C378.661,245.302,380.981,232.077,377.036,222.001z"/>
			</g>
		</g>
		<g>
			<polygon style="fill:#F9AF8B;" points="385.14,416.873 385.14,424.062 391.852,423.957 392.29,416.338 			"/>
			<g>
				<path style="fill:#2E3052;" d="M402.18,311.824c-0.046,0.853-0.278,4.957-0.63,10.678c-0.945,15.717-2.715,43.646-3.753,49.92
					c-1.066,6.437-0.584,27.548-0.241,38.598c0.056,1.879-0.677,3.586-1.9,4.839c-0.454,0.463-0.982,0.863-1.557,1.19
					c-1.001,0.554-2.15,0.872-3.373,0.872h-5.116c-3.855,0-6.951-3.123-6.83-6.9c0.287-9.343,0.639-26.385-0.028-39.551
					c-0.639-12.53,0.287-34.702,1.001-48.522h0.009c0.287-5.52,0.538-9.697,0.639-11.404L402.18,311.824z"/>
			</g>
			<path style="fill:#001030;" d="M380.402,311.543l21.779,0.281c-0.046,0.853-0.278,4.957-0.63,10.678
				c-7.395,0.89-15.097,1.262-21.788,0.445C380.049,317.426,380.3,313.25,380.402,311.543z"/>
			<g>
				<path style="fill:#001030;" d="M395.572,391.312c0.19,7.067,0.388,14.373,0.259,20.263c-0.037,1.653-0.095,3.067-0.173,4.28
					c-0.454,0.469-0.982,0.871-1.563,1.191c0.124-1.407,0.222-3.206,0.273-5.502c0.127-5.856-0.071-13.144-0.261-20.194
					c-0.234-8.615-0.454-16.754,0.025-20.218c1.045-7.581,3.382-48.679,3.995-59.65l1.465,0.064
					c-0.613,10.964-2.957,52.146-4.01,59.777C395.121,374.673,395.34,382.757,395.572,391.312z"/>
			</g>
			<g>
				<g>
					<g>
						<g>
							<path style="fill:#008EFF;" d="M386.86,423.794c0,0-1.39-1.915-2.529-1.859c-1.139,0.056-10.066,6.701-13.085,7.201
								c-3.018,0.5-2.484,2.681-1.957,3.8c0.526,1.12,23.987,0.099,23.987,0.099s0.797-6.818,0.078-8.924
								C392.636,422.004,389.2,424.339,386.86,423.794z"/>
						</g>
						<g>
							<g>
								<path style="fill:#FFFFFF;" d="M381.904,428.458c0.106,0.033,0.225,0.026,0.33-0.03c0.204-0.109,0.28-0.359,0.17-0.559
									c-0.037-0.067-0.92-1.649-2.142-2.285c-1.625-0.849-2.928,0.034-2.982,0.072c-0.19,0.132-0.234,0.389-0.1,0.575
									c0.134,0.186,0.397,0.23,0.587,0.098c0.035-0.024,0.942-0.619,2.1-0.016c0.996,0.519,1.789,1.935,1.797,1.95
									C381.717,428.36,381.804,428.427,381.904,428.458z"/>
							</g>
							<g>
								<path style="fill:#FFFFFF;" d="M383.185,427.324c0.105,0.033,0.224,0.026,0.33-0.03c0.204-0.108,0.281-0.359,0.17-0.559
									c-0.037-0.067-0.92-1.649-2.142-2.286c-1.627-0.849-2.928,0.034-2.983,0.072c-0.19,0.132-0.234,0.389-0.1,0.575
									c0.134,0.186,0.397,0.23,0.587,0.098c0.036-0.024,0.942-0.619,2.1-0.016c1,0.521,1.788,1.935,1.796,1.95
									C382.998,427.225,383.085,427.292,383.185,427.324z"/>
							</g>
							<g>
								<path style="fill:#FFFFFF;" d="M380.181,429.365c0.106,0.034,0.225,0.026,0.33-0.029c0.205-0.109,0.281-0.359,0.17-0.559
									c-0.037-0.067-0.92-1.649-2.142-2.286c-1.627-0.85-2.928,0.034-2.983,0.072c-0.19,0.132-0.234,0.389-0.1,0.575
									c0.134,0.186,0.398,0.23,0.587,0.098c0.036-0.024,0.943-0.618,2.1-0.016c1,0.521,1.789,1.935,1.796,1.95
									C379.994,429.265,380.082,429.333,380.181,429.365z"/>
							</g>
						</g>
					</g>
				</g>
			</g>
		</g>
		<g>
			<polygon style="fill:#F9AF8B;" points="417.829,416.873 418.552,424.051 424.541,423.957 424.979,416.338 			"/>
			<g>
				<path style="fill:#2E3052;" d="M430.159,371.468c-0.667,13.165-0.315,30.208-0.028,39.551c0.111,3.777-2.975,6.9-6.83,6.9
					h-5.116c-1.131,0-2.206-0.272-3.142-0.745c-0.565-0.291-1.094-0.654-1.548-1.09c-1.372-1.262-2.206-3.069-2.141-5.066
					c0.343-11.05,0.825-32.16-0.241-38.598c-1.056-6.383-2.873-35.165-3.809-50.719c-0.306-5.194-0.519-8.907-0.575-9.824
					l21.816,0.281c0.065,1.108,0.167,2.815,0.287,4.976C429.538,329.575,430.9,356.968,430.159,371.468z"/>
			</g>
			<path style="fill:#001030;" d="M428.834,317.136c-4.105,1.099-12.252,3.114-21.528,4.567c-0.306-5.194-0.519-8.907-0.575-9.824
				l21.816,0.281C428.611,313.268,428.713,314.975,428.834,317.136z"/>
			<g>
				<path style="fill:#001030;" d="M414.765,411.544c0.051,2.366,0.154,4.203,0.281,5.627c-0.569-0.287-1.091-0.651-1.553-1.081
					c-0.088-1.263-0.154-2.754-0.193-4.514c-0.127-5.89,0.071-13.196,0.261-20.263c0.232-8.555,0.449-16.639-0.012-19.988
					c-1.052-7.634-3.397-48.837-4.007-59.787l1.463-0.065c0.613,10.957,2.95,52.076,3.997,59.66
					c0.479,3.464,0.256,11.603,0.024,20.218C414.836,398.4,414.638,405.687,414.765,411.544z"/>
			</g>
			<g>
				<g>
					<path style="fill:#008EFF;" d="M420.887,422.948c0,0,3.054-0.799,3.899-0.782c0.845,0.016,6.502,6.214,8.406,6.579
						c3.454,0.662,3.459,5.947,1.357,6.209c-6.08,0.759-16.481-1.757-16.481-1.757s-0.958-6.781-0.542-8.909
						C417.942,422.16,419.188,423.573,420.887,422.948z"/>
				</g>
				<g>
					<g>
						<path style="fill:#FFFFFF;" d="M425.921,428.736c-0.109,0.023-0.226,0.005-0.326-0.06c-0.193-0.127-0.244-0.383-0.115-0.573
							c0.043-0.063,1.076-1.555,2.355-2.074c1.701-0.693,2.911,0.308,2.962,0.351c0.176,0.149,0.195,0.409,0.043,0.582
							c-0.152,0.172-0.418,0.192-0.594,0.042c-0.033-0.027-0.877-0.704-2.089-0.213c-1.042,0.423-1.969,1.759-1.978,1.773
							C426.117,428.655,426.023,428.714,425.921,428.736z"/>
					</g>
					<g>
						<path style="fill:#FFFFFF;" d="M424.757,427.487c-0.108,0.023-0.226,0.005-0.326-0.06c-0.193-0.127-0.245-0.383-0.115-0.573
							c0.043-0.063,1.076-1.555,2.355-2.075c1.702-0.693,2.911,0.307,2.962,0.351c0.176,0.149,0.195,0.409,0.043,0.582
							c-0.152,0.173-0.418,0.192-0.594,0.042c-0.033-0.027-0.878-0.704-2.089-0.213c-1.046,0.425-1.969,1.759-1.978,1.773
							C424.953,427.405,424.859,427.465,424.757,427.487z"/>
					</g>
					<g>
						<path style="fill:#FFFFFF;" d="M427.547,429.799c-0.108,0.023-0.226,0.005-0.326-0.06c-0.193-0.127-0.245-0.383-0.115-0.573
							c0.043-0.063,1.076-1.555,2.355-2.075c1.702-0.693,2.911,0.308,2.962,0.351c0.176,0.149,0.195,0.41,0.043,0.582
							c-0.152,0.172-0.418,0.192-0.594,0.042c-0.033-0.027-0.878-0.704-2.088-0.212c-1.046,0.425-1.969,1.759-1.978,1.773
							C427.743,429.718,427.65,429.777,427.547,429.799z"/>
					</g>
				</g>
			</g>
		</g>
		<g>
			<g>
				<g>
					<path style="fill:#008EFF;" d="M433.498,314.029c-19.704,4.858-39.385,4.872-59.045,0c-0.103-7.197-0.207-35.973,0.36-59.591
						c0.01-0.464,0.022-0.926,0.034-1.387c0.004-0.228,0.012-0.456,0.018-0.681v-0.037c0.008-0.295,0.014-0.585,0.024-0.876
						c0.42-15.576,1.155-28.296,2.411-29.995c0.002-0.002,0.002-0.002,0.002-0.002c2.934-3.95,17.678-10.257,21.757-13.073
						c0.34,0.536,2.347,3.515,4.977,3.735c2.887,0.25,5.453-3.078,5.453-3.078v-0.63c4.097,2.814,17.455,8.652,20.385,12.59
						C433.078,225.32,433.633,301.767,433.498,314.029z"/>
				</g>
			</g>
			<g>
				<g>
					<path style="fill:#0077EB;" d="M380.82,243.349c-1.692,2.241-4.163,7.318-5.271,9.664c-0.151,0.322-0.277,0.593-0.372,0.798
						c-0.125,0.269-0.195,0.425-0.201,0.437c-0.036,0.08-0.092,0.144-0.161,0.189c0.01-0.464,0.022-0.926,0.034-1.387
						c0.004-0.228,0.012-0.456,0.018-0.681v-0.037c0.227-0.478,0.496-1.04,0.796-1.656c1.26-2.576,3.06-6.05,4.423-7.858
						c0.149-0.199,0.436-0.24,0.639-0.094C380.927,242.872,380.967,243.152,380.82,243.349z"/>
				</g>
			</g>
			<g>
				<g>
					<path style="fill:#0077EB;" d="M418.549,225.966c-0.005,0-0.01,0-0.015,0c-7.83-0.244-13.871-3.436-17.56-6.07
						c-3.996-2.853-6.115-5.613-6.203-5.729c-0.151-0.198-0.109-0.478,0.093-0.625c0.203-0.148,0.488-0.107,0.639,0.091
						c0.084,0.11,8.532,10.986,23.06,11.439c0.252,0.008,0.45,0.214,0.442,0.461C418.997,225.775,418.794,225.966,418.549,225.966z"
						/>
				</g>
			</g>
			<g>
				<g>
					<path style="fill:#0077EB;" d="M392.172,299.013c-0.239,0-0.439-0.181-0.455-0.418c-0.017-0.247,0.174-0.459,0.426-0.476
						c12.846-0.825,20.508-7.203,24.674-12.408c4.529-5.659,6.032-11.201,6.047-11.256c0.064-0.239,0.312-0.383,0.556-0.32
						c0.244,0.062,0.391,0.306,0.328,0.545c-0.061,0.232-1.554,5.751-6.189,11.555c-4.282,5.361-12.157,11.93-25.356,12.777
						C392.192,299.013,392.182,299.013,392.172,299.013z"/>
				</g>
			</g>
			<g>
				<g>
					<path style="fill:#0077EB;" d="M399.069,291.022c-0.201,0-0.385-0.131-0.44-0.331c-0.066-0.238,0.078-0.484,0.322-0.548
						c11.163-2.957,13.317-12.09,13.338-12.182c0.053-0.241,0.298-0.395,0.543-0.342c0.246,0.052,0.402,0.29,0.349,0.531
						c-0.022,0.1-0.563,2.483-2.561,5.272c-1.839,2.566-5.315,5.965-11.431,7.585C399.149,291.016,399.108,291.022,399.069,291.022z
						"/>
				</g>
			</g>
		</g>
		<g>
			<path style="fill:#F9AF8B;" d="M447.957,313.238c-0.281,3.914-2.679,6.821-2.691,9.397c-0.012,2.579-3.05,0.892-1.643-4.199
				c1.404-5.088-0.679-10.014-1.792-9.969c-1.113,0.048,0.354,5.737-0.816,7.627c-1.17,1.888-2.054-2.079-3.079-4.533
				c-1.065-2.548-0.469-7.833,0.496-11.555c0.965-3.72-3.77-27.325-3.15-33.976l-1.709-8.629l-0.999-5.034l-0.187-5.254l9.127-3.543
				c0.344,1.687,0.696,3.435,1.045,5.194c0.154,0.775,0.305,1.553,0.454,2.328c1.221,6.292,2.317,12.486,2.764,16.459
				c1.233,10.99-0.791,33.407-0.791,33.407S448.221,309.568,447.957,313.238z"/>
			<path style="fill:#FC8664;" d="M443.012,251.092c-2.058,2.304-5.348,5.237-9.44,6.309l-0.999-5.034l-0.187-5.254l9.127-3.543
				c0.344,1.687,0.696,3.435,1.045,5.194C442.712,249.539,442.863,250.317,443.012,251.092z"/>
			<g>
				<path style="fill:#008EFF;" d="M445.547,246.11c0,0-1.088,1.265-2.989,2.654c-2.3,1.69-5.793,3.568-9.974,3.604
					c-0.504-14.562-1.248-26.867-2.33-30.479C432.18,224.217,441.428,235.685,445.547,246.11z"/>
			</g>
		</g>
		<g>
			<g>
				<path style="fill:#0077EB;" d="M426.32,241.887c1.691,2.24,4.162,7.317,5.271,9.664c0.151,0.322,0.276,0.592,0.372,0.798
					c0.126,0.268,0.196,0.425,0.201,0.436c0.075,0.168,0.242,0.266,0.418,0.266h0.009c-0.004-0.228-0.011-0.456-0.018-0.682
					c0.135,0,0.269,0,0.399-0.005c-0.062-0.132-0.21-0.454-0.422-0.908c-0.267-0.57-0.637-1.352-1.073-2.242
					c-1.259-2.578-3.06-6.051-4.422-7.858c-0.151-0.199-0.436-0.242-0.639-0.094C426.213,241.408,426.172,241.69,426.32,241.887z"/>
			</g>
		</g>
		<g>
			<path style="fill:#2E3052;" d="M418.07,184.999c0,7.888-4.957,13.324-13.008,13.324c-8.051,0-13.662-5.844-13.662-13.732
				s4.767-13.864,12.818-13.864C413.874,170.727,418.07,177.112,418.07,184.999z"/>
			<g>
				<path style="fill:#FC8664;" d="M416.261,188.396c0,0,2.237-2.922,3.9-0.506c1.663,2.416-0.688,9.553-4.76,7.811L416.261,188.396
					z"/>
				<g>
					<g>
						<g>
							<path style="fill:#FD664D;" d="M416.29,193.495c0.15,0,0.288-0.098,0.331-0.246c0.631-2.203,2.961-3.096,2.984-3.105
								c0.177-0.066,0.267-0.261,0.199-0.435c-0.067-0.174-0.266-0.262-0.443-0.196c-0.109,0.04-2.676,1.016-3.403,3.554
								c-0.051,0.179,0.055,0.365,0.238,0.416C416.228,193.491,416.259,193.495,416.29,193.495z"/>
						</g>
					</g>
				</g>
				<g>
					<g>
						<g>
							<path style="fill:#FD664D;" d="M418.641,192.385c0.064,0,0.128-0.017,0.186-0.054c0.16-0.101,0.206-0.309,0.103-0.466
								c-0.017-0.026-0.429-0.642-1.292-1.02c-0.173-0.076-0.377,0-0.454,0.17c-0.078,0.17,0,0.369,0.173,0.445
								c0.667,0.292,0.991,0.765,0.994,0.77C418.418,192.331,418.528,192.385,418.641,192.385z"/>
						</g>
					</g>
				</g>
			</g>
			<g>
				<path style="fill:#FC8664;" d="M393.209,188.396c0,0-2.237-2.922-3.9-0.506c-1.663,2.416,0.688,9.553,4.76,7.811
					L393.209,188.396z"/>
				<g>
					<path style="fill:#FD664D;" d="M393.18,193.495c-0.15,0-0.289-0.098-0.331-0.246c-0.631-2.203-2.961-3.096-2.984-3.105
						c-0.177-0.066-0.267-0.261-0.199-0.435c0.067-0.174,0.266-0.262,0.443-0.196c0.109,0.04,2.676,1.016,3.403,3.554
						c0.051,0.179-0.055,0.365-0.238,0.416C393.242,193.491,393.211,193.495,393.18,193.495z"/>
				</g>
				<g>
					<g>
						<g>
							<path style="fill:#FD664D;" d="M390.828,192.385c-0.064,0-0.128-0.017-0.186-0.054c-0.16-0.101-0.206-0.309-0.103-0.466
								c0.017-0.026,0.429-0.642,1.292-1.02c0.173-0.076,0.377,0,0.455,0.17c0.078,0.17,0,0.369-0.174,0.445
								c-0.667,0.292-0.991,0.765-0.994,0.77C391.052,192.331,390.941,192.385,390.828,192.385z"/>
						</g>
					</g>
				</g>
			</g>
			<path style="fill:#F9AF8B;" d="M399.229,201.754v7.097c0,0,2.16,3.614,5.082,3.86c2.918,0.249,5.512-3.112,5.512-3.112v-7.346
				L399.229,201.754z"/>
			<path style="fill:#FC8664;" d="M399.229,201.754v3.149c1.96,2.131,5.442,2.664,10.594,1.918v-4.568L399.229,201.754z"/>
			<path style="fill:#F9AF8B;" d="M417.457,188.17c-0.109,1.504-0.291,3.091-0.588,4.672c-0.971,5.232-3.159,10.376-7.873,12.027
				c-10.673,3.734-14.488-5.235-16.013-10.463c-0.167-0.579-0.318-1.226-0.451-1.916c-0.243-1.246-0.431-2.636-0.578-4.036
				c-0.174-1.698-0.29-3.416-0.362-4.927c-0.157-3.182,1.788-6.102,4.827-7.248c4.376-1.648,11.025-2.951,17.326,0.549
				c2.328,1.289,3.788,3.684,3.839,6.303C417.611,184.556,417.591,186.295,417.457,188.17z"/>
			<path style="fill:#2E3052;" d="M416.134,188.455c-0.359,0.643-2.359,6.688-2.916,7.536c-1.262-2.719-7.35-0.743-7.35-0.743
				c-0.383,0.121-0.779,0.184-1.179,0.184c-0.386,0-0.773-0.06-1.145-0.174l-0.031-0.01c0,0-6.16-1.892-7.374,0.958
				c-0.564-0.844-2.301-6.776-2.626-7.75h-1.559c0.147,1.4,0.335,2.79,0.578,4.036c0.133,0.69,0.284,1.336,0.451,1.916
				c1.525,5.228,5.34,14.198,16.013,10.463c4.714-1.651,6.902-6.796,7.873-12.027c0.297-1.581,0.479-3.169,0.588-4.672
				L416.134,188.455z M410.395,199.511v0.003c-0.003,0-0.003,0-0.003,0c-0.472,0.442-0.954,0.814-1.432,1.065
				c-2.704,1.433-2.998,1.216-4.065,1.263c-1.087,0.05-2.584-0.265-4.106-1.095c-0.472-0.261-1.179-0.764-1.952-1.457
				c0,0-1.097-3.674,5.87-2.753C411.69,195.361,410.511,198.794,410.395,199.511z"/>
			<path style="fill:#2E3052;" d="M409.312,189.322c0,0.758,0.398,1.372,0.89,1.372c0.492,0,0.89-0.614,0.89-1.372
				s-0.398-1.372-0.89-1.372C409.711,187.95,409.312,188.564,409.312,189.322z"/>
			<path style="fill:#2E3052;" d="M398.82,189.294c0,0.758,0.398,1.372,0.89,1.372c0.492,0,0.89-0.614,0.89-1.372
				c0-0.758-0.398-1.372-0.89-1.372C399.219,187.922,398.82,188.536,398.82,189.294z"/>
			<path style="fill:#2E3052;" d="M413.733,185.448c0,0-3.41-1.32-6.036-0.209l0.263,1.431c0,0,3.854-0.319,5.796,0.452
				C413.929,186.571,413.954,186.014,413.733,185.448z"/>
			<path style="fill:#2E3052;" d="M396.772,185.448c0,0,3.41-1.32,6.036-0.209l-0.263,1.431c0,0-3.854-0.319-5.796,0.452
				C396.576,186.571,396.551,186.014,396.772,185.448z"/>
			<g>
				<path style="fill:#FC8664;" d="M404.615,194.631c-0.581,0-1.156-0.221-1.246-0.257c-0.176-0.071-0.26-0.267-0.188-0.44
					c0.071-0.172,0.273-0.255,0.448-0.185c0.311,0.124,1.057,0.317,1.38,0.128c0.062-0.037,0.147-0.109,0.169-0.314
					c0.124-1.177-0.205-5.124-0.208-5.163c-0.016-0.186,0.125-0.348,0.315-0.364c0.19-0.016,0.356,0.123,0.371,0.308
					c0.014,0.165,0.338,4.049,0.207,5.288c-0.049,0.466-0.299,0.705-0.5,0.823C405.143,194.585,404.879,194.631,404.615,194.631z"/>
			</g>
			<path style="fill:#FFFFFF;" d="M409.312,197.102c-0.281,1.386-1.216,3.937-4.365,3.937c-3.157,0-4.042-2.331-4.346-3.937H409.312
				z"/>
			<path style="fill:#2E3052;" d="M391.955,188.456h1.56c-0.172-1.534-0.419-4.236,0.867-4.623c4.064-1.223-1.202-4.036,0.632-5.439
				c1.834-1.406,6.4-0.804,9.575-0.904c3.194-0.101,8.329-0.057,9.575,0.226c1.249,0.28,0.564,2.312,0.107,3.886
				c-0.461,1.571,1.531,3.311,1.865,4.94c0.096,0.467,0.076,1.162-0.001,1.914h1.3c0.154-1.982,0.177-3.827,0.149-5.323
				c-0.052-2.62-1.511-5.014-3.837-6.305c-6.301-3.5-12.95-2.195-17.327-0.546c-3.039,1.143-4.983,4.066-4.828,7.245
				C391.665,185.038,391.779,186.757,391.955,188.456z"/>
		</g>
	</g>
	<g>
		<g>
			<g>
				<g>
					<path style="fill:#FFFFFF;" d="M163.28,361.163H84.115c1.308-7.942,7.608-13.712,14.95-13.689l24.632,0.072l24.632-0.072
						C155.672,347.452,161.971,353.221,163.28,361.163z"/>
				</g>
				<g>
					<rect x="90.342" y="360.026" style="fill:#FFFFFF;" width="4.314" height="73.81"/>
					<rect x="152.74" y="360.026" style="fill:#FFFFFF;" width="4.314" height="73.81"/>
					<rect x="94.655" y="380.708" style="fill:#DCEDF9;" width="58.084" height="4.16"/>
				</g>
			</g>
			<g>
				<g>
					<path style="fill:#0077EB;" d="M104.316,261.804c0,0-13.221,17.632-14.981,33.009c-1.242,10.861,14.981,27.09,14.981,27.09
						l5.588-2.781l-5.57-12.561c-1.982-6.117-4.423-8.535-2.62-14.708l4.034-8.699L104.316,261.804z"/>
				</g>
				<g>
					<path style="fill:#0077EB;" d="M145.979,261.538c0,0,13.05,18.801,14.13,34.241c0.932,13.312-15.043,26.124-15.043,26.124
						l-4.614-2.297l6.389-12.69c1.982-6.117,2.924-9.806,0.222-16.462l-3.43-7.3L145.979,261.538z"/>
				</g>
				<g>
					<g>
						<path style="fill:#008EFF;" d="M107.009,301.96l-8.764,27.879c0,0,37.943,4.839,49.546,1.708l-5.894-30.364l4.081-39.645
							c-5.679-2.393-11.699-3.922-17.845-4.366c-8.973-0.648-14.641,0.832-23.817,4.632L107.009,301.96z"/>
					</g>
					<g>
						<g>
							<path style="fill:#0077EB;" d="M116.494,270.21c8.371-0.982,16.159-6.73,16.513-6.994c0.207-0.154,0.249-0.447,0.095-0.654
								c-0.154-0.207-0.447-0.249-0.654-0.095c-0.092,0.068-9.256,6.829-18.07,6.949c-0.262,0.001-0.464,0.216-0.461,0.474
								c0.003,0.258,0.215,0.465,0.473,0.461C115.093,270.34,115.796,270.292,116.494,270.21z"/>
						</g>
					</g>
				</g>
				<g>
					<polygon style="fill:#F9AF8B;" points="123.239,419.575 123.923,425.731 130.47,425.88 131.019,420.772 					"/>
					<g>
						<path style="fill:#001030;" d="M122.212,321.978c0,0-16.953-0.931-22.696,3.767c-5.742,4.698-4.588,18.18,1.262,21.861
							c5.85,3.681,15.822,10.914,15.822,10.914l6.343,63.06l8.382,0.285c0,0,7.723-63.345,3.807-75.613
							C131.217,333.985,122.212,321.978,122.212,321.978z"/>
						<path style="fill:#2E3052;" d="M132.098,418.738c0.456,1.473,0.239,2.9-0.216,4.319l-9.644-0.214
							c-0.34-1.405-0.391-2.815-0.187-4.23L132.098,418.738z"/>
					</g>
				</g>
				<g>
					<path style="fill:#FFFFFF;" d="M146.203,321.502h-44.49l-4.111-24.043c-0.356-2.082,1.248-3.984,3.36-3.984h45.992
						c2.113,0,3.716,1.901,3.361,3.984L146.203,321.502z"/>
					<g>
						<path style="fill:#DCEDF9;" d="M142.626,326.73h-37.292c-2,0-3.621-1.621-3.621-3.621v-1.607h44.534v1.607
							C146.248,325.109,144.626,326.73,142.626,326.73z"/>
					</g>
					<g>
						<path style="fill:#DCEDF9;" d="M127.922,308.48c0,2.134-1.73,3.864-3.864,3.864c-2.134,0-3.864-1.73-3.864-3.864
							c0-2.134,1.73-3.864,3.864-3.864C126.192,304.616,127.922,306.346,127.922,308.48z"/>
					</g>
				</g>
				<g>
					<polygon style="fill:#F9AF8B;" points="95.431,402.262 93.98,408.354 99.855,409.515 102.248,404.075 					"/>
					<g>
						<path style="fill:#2E3052;" d="M130.825,320.934c0,0-11.354-3.915-18.01,4.307c-6.656,8.222-17.802,77.629-17.802,77.629
							l7.641,3.153l24.562-61.641c0,0,20.002,11.414,22.425-4.812C151.558,326.73,130.825,320.934,130.825,320.934z"/>
						<path style="fill:#524E84;" d="M104.385,402.842c-0.028,1.592-0.702,2.922-1.605,4.167l-9.391-3.32
							c0.12-1.488,0.524-2.888,1.181-4.21L104.385,402.842z"/>
					</g>
				</g>
				<g>
					<g>
						<path style="fill:#008EFF;" d="M98.463,407.352c0,0-3.561-1.807-4.609-2.013c-1.048-0.206-9.705,5.935-12.157,5.875
							c-4.448-0.109-5.872,6.422-3.344,7.311c7.312,2.571,20.844,2.252,20.844,2.252s3.005-8.124,3.062-10.866
							C102.315,407.168,100.395,408.581,98.463,407.352z"/>
					</g>
					<g>
						<g>
							<path style="fill:#FFFFFF;" d="M90.686,413.155c0.128,0.058,0.278,0.067,0.419,0.013c0.273-0.105,0.405-0.408,0.296-0.677
								c-0.037-0.09-0.913-2.211-2.354-3.196c-1.916-1.313-3.681-0.401-3.755-0.362c-0.257,0.137-0.351,0.454-0.21,0.708
								c0.141,0.254,0.465,0.349,0.723,0.212c0.048-0.024,1.273-0.634,2.639,0.298c1.174,0.803,1.962,2.703,1.969,2.722
								C90.466,413.002,90.566,413.1,90.686,413.155z"/>
						</g>
						<g>
							<path style="fill:#FFFFFF;" d="M92.461,411.923c0.128,0.058,0.278,0.067,0.419,0.013c0.273-0.105,0.405-0.408,0.296-0.677
								c-0.037-0.09-0.913-2.211-2.354-3.197c-1.918-1.314-3.681-0.401-3.755-0.362c-0.257,0.137-0.351,0.454-0.21,0.707
								c0.141,0.254,0.465,0.349,0.723,0.212c0.048-0.024,1.274-0.634,2.638,0.298c1.179,0.806,1.961,2.703,1.969,2.722
								C92.241,411.771,92.341,411.869,92.461,411.923z"/>
						</g>
						<g>
							<path style="fill:#FFFFFF;" d="M88.391,414.033c0.128,0.058,0.278,0.067,0.419,0.013c0.273-0.105,0.405-0.408,0.296-0.677
								c-0.037-0.09-0.913-2.211-2.354-3.197c-1.918-1.314-3.681-0.401-3.755-0.362c-0.257,0.137-0.351,0.454-0.21,0.708
								c0.141,0.254,0.465,0.349,0.723,0.212c0.048-0.024,1.274-0.634,2.639,0.298c1.179,0.806,1.962,2.703,1.969,2.722
								C88.17,413.88,88.271,413.978,88.391,414.033z"/>
						</g>
					</g>
				</g>
				<g>
					<g>
						<path style="fill:#008EFF;" d="M126.448,425.473c0,0,3.644-1.106,4.663-1.126c1.019-0.02,8.13,7.186,10.443,7.536
							c4.196,0.636,4.449,7.006,1.927,7.421c-7.294,1.201-19.951-1.344-19.951-1.344s-1.474-8.129-1.072-10.714
							C122.861,424.661,124.43,426.307,126.448,425.473z"/>
					</g>
					<g>
						<g>
							<path style="fill:#FFFFFF;" d="M132.79,432.214c-0.13,0.033-0.273,0.017-0.396-0.057c-0.239-0.144-0.313-0.451-0.165-0.685
								c0.049-0.078,1.225-1.925,2.741-2.611c2.017-0.915,3.524,0.234,3.587,0.283c0.219,0.171,0.255,0.485,0.08,0.699
								c-0.175,0.215-0.495,0.251-0.714,0.079c-0.041-0.031-1.09-0.807-2.528-0.158c-1.236,0.559-2.291,2.213-2.302,2.23
								C133.022,432.108,132.911,432.183,132.79,432.214z"/>
						</g>
						<g>
							<path style="fill:#FFFFFF;" d="M131.327,430.763c-0.13,0.033-0.272,0.017-0.395-0.057c-0.239-0.144-0.313-0.451-0.165-0.685
								c0.049-0.078,1.225-1.926,2.741-2.612c2.019-0.916,3.524,0.234,3.587,0.284c0.219,0.171,0.255,0.484,0.079,0.699
								c-0.175,0.215-0.495,0.251-0.714,0.079c-0.041-0.031-1.091-0.807-2.528-0.158c-1.241,0.562-2.291,2.213-2.301,2.23
								C131.559,430.656,131.449,430.732,131.327,430.763z"/>
						</g>
						<g>
							<path style="fill:#FFFFFF;" d="M134.8,433.42c-0.13,0.033-0.272,0.017-0.395-0.057c-0.239-0.144-0.313-0.451-0.165-0.685
								c0.049-0.078,1.225-1.925,2.741-2.612c2.019-0.916,3.524,0.234,3.587,0.284c0.219,0.171,0.255,0.485,0.079,0.699
								c-0.175,0.215-0.495,0.251-0.714,0.079c-0.041-0.031-1.091-0.807-2.528-0.158c-1.241,0.562-2.291,2.213-2.301,2.23
								C135.032,433.313,134.922,433.388,134.8,433.42z"/>
						</g>
					</g>
				</g>
				<g>
					<path style="fill:#2E3052;" d="M136.346,222.039c0,0,5.396,8.357,4.804,17.062c-0.591,8.705,0.795,18.754-6.994,18.312
						c-7.789-0.442-21.683,3.123-26.099-3.657C103.641,246.977,136.346,222.039,136.346,222.039z"/>
					<path style="fill:#000B29;" d="M138.346,237.406c0,0,1.4,12.618-4.587,16.092c-5.987,3.474-10.321-0.405-10.321-0.405
						S136.059,235.506,138.346,237.406z"/>
					<g>
						<g>
							<path style="fill:#FC8664;" d="M113.475,237.347c0,0-2.15-2.867-3.749-0.496c-1.599,2.37,0.661,9.371,4.575,7.662
								L113.475,237.347z"/>
							<g>
								<path style="fill:#FD664D;" d="M113.447,242.35c-0.144,0-0.277-0.096-0.318-0.242c-0.607-2.161-2.846-3.038-2.868-3.046
									c-0.17-0.065-0.256-0.256-0.192-0.426c0.065-0.171,0.256-0.257,0.426-0.192c0.105,0.04,2.572,0.997,3.271,3.486
									c0.049,0.176-0.053,0.359-0.229,0.408C113.507,242.346,113.477,242.35,113.447,242.35z"/>
							</g>
							<g>
								<path style="fill:#FD664D;" d="M111.187,241.261c-0.061,0-0.124-0.017-0.179-0.053c-0.154-0.099-0.198-0.304-0.099-0.457
									c0.017-0.026,0.413-0.63,1.241-1.001c0.166-0.075,0.362,0,0.437,0.167c0.075,0.167,0,0.362-0.167,0.437
									c-0.641,0.287-0.952,0.751-0.955,0.755C111.402,241.208,111.296,241.261,111.187,241.261z"/>
							</g>
						</g>
						<g>
							<path style="fill:#FC8664;" d="M135.631,237.347c0,0,2.15-2.867,3.749-0.496c1.599,2.37-0.661,9.371-4.575,7.662
								L135.631,237.347z"/>
							<g>
								<path style="fill:#FD664D;" d="M135.659,242.35c0.145,0,0.277-0.096,0.318-0.242c0.607-2.161,2.846-3.038,2.868-3.046
									c0.17-0.065,0.256-0.256,0.191-0.426c-0.065-0.171-0.255-0.257-0.426-0.192c-0.105,0.04-2.572,0.997-3.271,3.486
									c-0.049,0.176,0.053,0.359,0.229,0.408C135.599,242.346,135.629,242.35,135.659,242.35z"/>
							</g>
							<g>
								<path style="fill:#FD664D;" d="M137.919,241.261c0.061,0,0.123-0.017,0.179-0.053c0.154-0.099,0.198-0.304,0.099-0.457
									c-0.017-0.026-0.413-0.63-1.242-1.001c-0.166-0.075-0.362,0-0.437,0.167c-0.075,0.167,0,0.362,0.167,0.437
									c0.641,0.287,0.952,0.751,0.955,0.755C137.704,241.208,137.811,241.261,137.919,241.261z"/>
							</g>
						</g>
						<path style="fill:#F9AF8B;" d="M129.845,250.452v6.962c0,0-2.076,3.546-4.884,3.787c-2.805,0.245-5.298-3.053-5.298-3.053
							v-7.207L129.845,250.452z"/>
						<path style="fill:#FC8664;" d="M129.845,250.452v3.089c-1.884,2.091-5.229,2.832-10.181,2.101l-0.001-4.7L129.845,250.452z"/>
						<path style="fill:#F9AF8B;" d="M137.186,232.571c-0.129,2.706-0.387,6.089-0.903,8.795c-0.129,0.675-0.275,1.31-0.437,1.879
							c-1.465,5.13-5.13,13.928-15.39,10.263c-4.531-1.617-6.632-6.665-7.568-11.798c-0.635-3.486-0.731-7.009-0.685-9.526
							c0.049-2.57,1.452-4.918,3.688-6.185c6.056-3.433,12.446-2.153,16.653-0.536C135.466,226.585,137.335,229.452,137.186,232.571
							z"/>
						<path style="fill:#2E3052;" d="M120.035,238.422c0,0.743-0.383,1.346-0.856,1.346c-0.472,0-0.855-0.603-0.855-1.346
							c0-0.743,0.383-1.346,0.855-1.346C119.652,237.077,120.035,237.679,120.035,238.422z"/>
						<path style="fill:#2E3052;" d="M130.6,238.422c0,0.743-0.383,1.346-0.855,1.346c-0.472,0-0.856-0.603-0.856-1.346
							c0-0.743,0.383-1.346,0.856-1.346C130.217,237.077,130.6,237.679,130.6,238.422z"/>
						<path style="fill:#2E3052;" d="M117.485,233.945c0.711-0.201,2.146-0.544,3.66-0.548c0.399-0.001,0.704,0.353,0.633,0.745
							l-0.002,0.01c-0.056,0.313-0.336,0.535-0.654,0.52c-1.03-0.048-3.734,0.097-5.011,0.614c-0.026-0.222,0.105-0.465,0.291-0.681
							C116.683,234.278,117.069,234.062,117.485,233.945z"/>
						<path style="fill:#2E3052;" d="M131.308,233.972c-0.711-0.201-2.146-0.544-3.66-0.548c-0.398-0.001-0.703,0.353-0.633,0.745
							l0.002,0.01c0.056,0.313,0.336,0.535,0.654,0.52c1.03-0.048,3.734,0.097,5.011,0.614c0.026-0.222-0.105-0.465-0.291-0.681
							C132.11,234.305,131.723,234.089,131.308,233.972z"/>
						<g>
							<path style="fill:#FC8664;" d="M124.668,243.896c-0.253,0-0.507-0.045-0.719-0.172c-0.193-0.116-0.434-0.35-0.481-0.808
								c-0.126-1.216,0.185-5.026,0.199-5.188c0.015-0.182,0.174-0.318,0.357-0.303c0.182,0.015,0.318,0.175,0.303,0.357
								c-0.003,0.039-0.319,3.911-0.2,5.065c0.021,0.201,0.103,0.272,0.162,0.308c0.31,0.186,1.028-0.004,1.327-0.125
								c0.169-0.07,0.362,0.012,0.431,0.181c0.069,0.169-0.012,0.362-0.181,0.431C125.78,243.679,125.226,243.896,124.668,243.896z"
								/>
						</g>
						<path style="fill:#FFFFFF;" d="M120.468,245.984c0.25,1.258,1.081,3.573,3.881,3.573c2.807,0,3.594-2.115,3.864-3.573H120.468
							z"/>
						<g>
							<path style="fill:#FC8664;" d="M124.309,251.487c-0.808,0-1.521-0.435-1.551-0.454c-0.155-0.096-0.203-0.3-0.107-0.455
								c0.096-0.155,0.299-0.203,0.455-0.108l0,0c0.006,0.003,0.588,0.355,1.204,0.355c0.667,0,1.264-0.353,1.27-0.357
								c0.157-0.094,0.36-0.043,0.454,0.113c0.094,0.156,0.044,0.359-0.112,0.453C125.89,251.053,125.165,251.487,124.309,251.487z"
								/>
						</g>
					</g>
					<path style="fill:#2E3052;" d="M138.517,232.032c-0.106,0.302-0.401,0.494-0.796,0.61c0.029,0.73-0.048,1.607-0.12,2.448
						c-0.408,4.78-1.614,5.62-1.887,4.438c-0.18-0.785-0.169-5.287-0.082-6.755c-0.945-0.062-1.752-0.219-1.752-0.219l-1.109-4.641
						l-0.388,4.584c-1.663,0.579-5.544-0.348-5.544-0.348l-1.302-4.575l-0.805,4.402c-2.495,1.215-5.612,0.406-5.612,0.406
						l-0.716-4.748l-1.654,4.748c0,0-5.322,1.909-5.38,0c-0.036-1.111,0.778-4.24,1.466-6.664c0.75-2.643,2.486-4.876,4.834-6.136
						c6.601-3.544,13.582-1.659,15.977-0.228C138.726,222.384,138.517,232.032,138.517,232.032z"/>
					<path style="fill:#2E3052;" d="M114.302,222.393c0,0-4.381,5.211-5.823,14.518c-1.441,9.307-3.437,16.183,2.171,19.256
						c6.07,3.326,5.544-3.495,5.457-5.349c-0.087-1.854-5.25-6.921-1.805-21.194C115.415,225.015,114.302,222.393,114.302,222.393z"
						/>
					<path style="fill:#000B29;" d="M113.278,241.625c0,0,0,0.005,0,0.011c0.002,0.069,0.007,0.439,0.033,1.018
						c0.013,0.359,0.035,0.796,0.069,1.293c0.206,3.136,0.816,8.551,2.608,10.429c0.707,0.743,2.071,1.115,3.677,1.266v-2.464
						c-1.692-0.803-3.011-2.122-4.034-3.745c-0.632-1.368-1.721-3.51-2.231-6.879L113.278,241.625z"/>
					<path style="fill:#FFFFFF;" d="M137.265,244.671c0,0.428-0.347,0.775-0.775,0.775c-0.428,0-0.775-0.347-0.775-0.775
						c0-0.428,0.347-0.775,0.775-0.775C136.918,243.896,137.265,244.243,137.265,244.671z"/>
				</g>
			</g>
		</g>
	</g>
	<g>
		<g>
			<g>
				<g>
					<path style="fill:#FFAA01;" d="M370.749,177.937h-19.008c-1.459,0-2.642-1.183-2.642-2.642v-19.008
						c0-1.459,1.183-2.642,2.642-2.642h19.008c1.459,0,2.642,1.183,2.642,2.642v19.008
						C373.391,176.755,372.208,177.937,370.749,177.937z"/>
				</g>
			</g>
			<g>
				<path style="fill:#FDCC50;" d="M369.517,165.792c0,2.001-0.711,3.836-1.894,5.267c-1.517,1.835-3.811,3.005-6.377,3.005
					c-2.567,0-4.86-1.169-6.377-3.004c-1.183-1.431-1.894-3.266-1.894-5.267c0-4.568,3.703-8.271,8.271-8.271
					C365.813,157.52,369.517,161.223,369.517,165.792z"/>
				<path style="fill:#FFFFFF;" d="M367.623,171.058c-1.517,1.835-3.811,3.005-6.377,3.005c-2.567,0-4.86-1.169-6.377-3.004
					l0.111-0.22c0.179-0.354,0.427-0.664,0.724-0.914c0.298-0.251,0.645-0.442,1.024-0.557c1.347-0.411,2.597-0.827,3.298-2.03
					c-0.853-0.401-1.422-1.203-1.66-1.77c-0.936,0.2-1.609-1.532-1.108-1.991c0.19-0.174,0.383-0.222,0.552-0.213
					c0.155-1.762,1.633-3.335,3.435-3.335c1.802,0,3.281,1.574,3.435,3.335c0.169-0.01,0.362,0.039,0.552,0.213
					c0.501,0.459-0.172,2.19-1.108,1.991c-0.204,0.632-0.906,1.394-1.539,1.66c0.701,1.203,1.829,1.728,3.176,2.139
					c0.38,0.115,0.727,0.306,1.025,0.557c0.298,0.25,0.545,0.56,0.724,0.914L367.623,171.058z"/>
			</g>
		</g>
		<g>
			<g>
				<g>
					<path style="fill:#FFAA01;" d="M55.125,307.108H36.117c-1.459,0-2.642-1.183-2.642-2.642v-19.008
						c0-1.459,1.183-2.642,2.642-2.642h19.008c1.459,0,2.642,1.183,2.642,2.642v19.008
						C57.767,305.925,56.584,307.108,55.125,307.108z"/>
				</g>
			</g>
			<path style="fill:#FFFFFF;" d="M45.985,286.908c-3.102-0.207-5.682,2.25-5.682,5.305c0,0.989,0.271,1.917,0.744,2.712
				c0.704,1.185,1.429,2.358,2.098,3.564l2.519,4.54l3.842-6.932c0.225-0.405,0.469-0.799,0.704-1.198
				c0.486-0.823,0.753-1.788,0.727-2.816C50.873,289.359,48.702,287.087,45.985,286.908z M45.62,293.821
				c-1.239,0-2.245-1.004-2.245-2.245c0-1.241,1.006-2.245,2.245-2.245c1.241,0,2.245,1.004,2.245,2.245
				C47.865,292.817,46.861,293.821,45.62,293.821z"/>
		</g>
		<g>
			<g>
				<g>
					<g>
						<path style="fill:#008EFF;" d="M454.265,185.938c2.99,0,5.423,2.432,5.423,5.423c0,2.99-2.433,5.423-5.423,5.423
							c-2.99,0-5.423-2.433-5.423-5.423C448.842,188.37,451.275,185.938,454.265,185.938z M454.265,195.082
							c2.052,0,3.721-1.669,3.721-3.721c0-2.052-1.669-3.721-3.721-3.721c-2.052,0-3.721,1.669-3.721,3.721
							C450.543,193.413,452.213,195.082,454.265,195.082z"/>
					</g>
				</g>
			</g>
			<g>
				<path style="fill:#FFAA01;" d="M434.744,166.914c2.99,0,5.423,2.433,5.423,5.423c0,2.99-2.433,5.423-5.423,5.423
					c-2.99,0-5.422-2.433-5.422-5.423C429.321,169.347,431.754,166.914,434.744,166.914z M434.744,176.058
					c2.052,0,3.721-1.669,3.721-3.721c0-2.052-1.669-3.721-3.721-3.721c-2.052,0-3.721,1.669-3.721,3.721
					C431.022,174.389,432.692,176.058,434.744,176.058z"/>
			</g>
			<g>
				<g>
					<g>
						<g>
							<path style="fill:#008EFF;" d="M428.044,149.293c0.47,0,0.851,0.381,0.851,0.851v3.751c0,0.47-0.381,0.851-0.851,0.851
								c-0.47,0-0.851-0.381-0.851-0.851v-3.751C427.193,149.674,427.574,149.293,428.044,149.293z"/>
						</g>
					</g>
					<g>
						<g>
							<path style="fill:#008EFF;" d="M428.044,142.729c0.47,0,0.851,0.381,0.851,0.851v3.751c0,0.47-0.381,0.851-0.851,0.851
								c-0.47,0-0.851-0.381-0.851-0.851v-3.751C427.193,143.11,427.574,142.729,428.044,142.729z"/>
						</g>
					</g>
				</g>
				<g>
					<g>
						<g>
							<path style="fill:#008EFF;" d="M422.779,147.887h3.37c0.47,0,0.851,0.381,0.851,0.851c0,0.47-0.381,0.851-0.851,0.851h-3.37
								c-0.47,0-0.851-0.381-0.851-0.851C421.928,148.267,422.309,147.887,422.779,147.887z"/>
						</g>
					</g>
					<g>
						<g>
							<path style="fill:#008EFF;" d="M429.94,147.887h3.37c0.47,0,0.851,0.381,0.851,0.851c0,0.47-0.381,0.851-0.851,0.851h-3.37
								c-0.47,0-0.851-0.381-0.851-0.851C429.089,148.267,429.47,147.887,429.94,147.887z"/>
						</g>
					</g>
				</g>
			</g>
			<g>
				<g>
					<g>
						<g>
							<g>
								<path style="fill:#FFAA01;" d="M457.986,170.312c0.47,0,0.85,0.381,0.85,0.851v3.751c0,0.47-0.381,0.851-0.85,0.851
									c-0.47,0-0.851-0.381-0.851-0.851v-3.751C457.135,170.693,457.516,170.312,457.986,170.312z"/>
							</g>
						</g>
						<g>
							<g>
								<path style="fill:#FFAA01;" d="M457.986,163.748c0.47,0,0.85,0.381,0.85,0.851v3.751c0,0.47-0.381,0.851-0.85,0.851
									c-0.47,0-0.851-0.381-0.851-0.851v-3.751C457.135,164.128,457.516,163.748,457.986,163.748z"/>
							</g>
						</g>
					</g>
					<g>
						<g>
							<g>
								<path style="fill:#FFAA01;" d="M452.721,168.905h3.37c0.47,0,0.851,0.381,0.851,0.851s-0.381,0.851-0.851,0.851h-3.37
									c-0.47,0-0.851-0.381-0.851-0.851S452.251,168.905,452.721,168.905z"/>
							</g>
						</g>
						<g>
							<g>
								<path style="fill:#FFAA01;" d="M459.882,168.905h3.37c0.47,0,0.851,0.381,0.851,0.851s-0.381,0.851-0.851,0.851h-3.37
									c-0.47,0-0.851-0.381-0.851-0.851S459.412,168.905,459.882,168.905z"/>
							</g>
						</g>
					</g>
				</g>
			</g>
		</g>
		<g>
			<g>
				<g>
					<g>
						<path style="fill:#008EFF;" d="M118.454,116.697c2.99,0,5.423,2.433,5.423,5.423c0,2.99-2.433,5.423-5.423,5.423
							c-2.99,0-5.423-2.433-5.423-5.423C113.032,119.129,115.464,116.697,118.454,116.697z M118.454,118.398
							c-2.052,0-3.721,1.67-3.721,3.721c0,2.052,1.669,3.721,3.721,3.721c2.052,0,3.722-1.669,3.722-3.721
							C122.176,120.067,120.506,118.398,118.454,118.398z"/>
					</g>
				</g>
			</g>
			<g>
				<g>
					<g>
						<g>
							<path style="fill:#FFAA01;" d="M98.705,98.785c2.99,0,5.423,2.433,5.423,5.423c0,2.99-2.433,5.423-5.423,5.423
								c-2.99,0-5.423-2.433-5.423-5.423C93.283,101.217,95.715,98.785,98.705,98.785z M98.705,100.486
								c-2.052,0-3.721,1.669-3.721,3.721c0,2.052,1.669,3.721,3.721,3.721c2.052,0,3.721-1.67,3.721-3.721
								C102.427,102.155,100.758,100.486,98.705,100.486z"/>
						</g>
					</g>
				</g>
			</g>
			<g>
				<g>
					<g>
						<g>
							<path style="fill:#008EFF;" d="M91.552,129.781c0,0.47,0.381,0.851,0.851,0.851h3.751c0.47,0,0.851-0.381,0.851-0.851
								c0-0.47-0.381-0.851-0.851-0.851h-3.751C91.933,128.93,91.552,129.311,91.552,129.781z"/>
						</g>
					</g>
					<g>
						<g>
							<path style="fill:#008EFF;" d="M84.988,129.781c0,0.47,0.381,0.851,0.851,0.851h3.751c0.47,0,0.851-0.381,0.851-0.851
								c0-0.47-0.381-0.851-0.851-0.851h-3.751C85.368,128.93,84.988,129.311,84.988,129.781z"/>
						</g>
					</g>
				</g>
				<g>
					<g>
						<g>
							<path style="fill:#008EFF;" d="M90.145,124.515v3.37c0,0.47,0.381,0.851,0.851,0.851c0.47,0,0.851-0.381,0.851-0.851v-3.37
								c0-0.47-0.381-0.85-0.851-0.85C90.526,123.665,90.145,124.046,90.145,124.515z"/>
						</g>
					</g>
					<g>
						<g>
							<path style="fill:#008EFF;" d="M90.145,131.676v3.37c0,0.47,0.381,0.851,0.851,0.851c0.47,0,0.851-0.381,0.851-0.851v-3.37
								c0-0.47-0.381-0.85-0.851-0.85C90.526,130.826,90.145,131.206,90.145,131.676z"/>
						</g>
					</g>
				</g>
			</g>
			<g>
				<g>
					<g>
						<g>
							<g>
								<path style="fill:#FFAA01;" d="M131.273,100.486c0,0.47,0.381,0.851,0.851,0.851h3.751c0.47,0,0.851-0.381,0.851-0.851
									c0-0.47-0.381-0.851-0.851-0.851h-3.751C131.654,99.635,131.273,100.016,131.273,100.486z"/>
							</g>
						</g>
						<g>
							<g>
								<g>
									<path style="fill:#FFAA01;" d="M124.709,100.486c0,0.47,0.381,0.851,0.851,0.851h3.751c0.47,0,0.851-0.381,0.851-0.851
										c0-0.47-0.381-0.851-0.851-0.851h-3.751C125.09,99.635,124.709,100.016,124.709,100.486z"/>
								</g>
							</g>
						</g>
					</g>
					<g>
						<g>
							<g>
								<path style="fill:#FFAA01;" d="M129.867,95.221v3.37c0,0.47,0.381,0.851,0.85,0.851s0.851-0.381,0.851-0.851v-3.37
									c0-0.47-0.381-0.851-0.851-0.851S129.867,94.751,129.867,95.221z"/>
							</g>
						</g>
						<g>
							<g>
								<path style="fill:#FFAA01;" d="M129.867,102.382v3.37c0,0.47,0.381,0.851,0.85,0.851s0.851-0.381,0.851-0.851v-3.37
									c0-0.47-0.381-0.851-0.851-0.851S129.867,101.912,129.867,102.382z"/>
							</g>
						</g>
					</g>
				</g>
			</g>
		</g>
		<g>
			<g>
				<g>
					<g>
						<path style="fill:#DCEDF9;" d="M357.383,126.664c0.114,0.027,0.236,0.028,0.358-0.001c1.288-0.317,2.033-0.445,2.041-0.446
							c0.39-0.066,0.648-0.417,0.578-0.783c-0.071-0.366-0.444-0.609-0.834-0.543c-0.032,0.006-0.801,0.137-2.149,0.469
							c-0.383,0.094-0.613,0.462-0.512,0.822C356.934,126.428,357.138,126.606,357.383,126.664z"/>
					</g>
				</g>
				<g>
					<g>
						<path style="fill:#DCEDF9;" d="M315.705,157.532c-0.669,1.144-1.312,2.33-1.914,3.526c-0.149,0.296-0.499,0.443-0.824,0.366
							c-0.044-0.011-0.088-0.025-0.131-0.044c-0.358-0.159-0.512-0.56-0.342-0.897c0.613-1.22,1.271-2.431,1.953-3.599
							c0.19-0.326,0.625-0.446,0.974-0.267C315.768,156.796,315.895,157.205,315.705,157.532z"/>
					</g>
					<g>
						<path style="fill:#DCEDF9;" d="M312.106,164.685c-0.517,1.209-1.01,2.458-1.462,3.715c-0.121,0.335-0.496,0.523-0.855,0.437
							c-0.018-0.004-0.036-0.009-0.055-0.015c-0.375-0.119-0.577-0.502-0.45-0.854c0.461-1.28,0.963-2.554,1.49-3.785
							c0.148-0.345,0.566-0.512,0.934-0.374C312.075,163.948,312.253,164.34,312.106,164.685z"/>
					</g>
					<g>
						<path style="fill:#DCEDF9;" d="M306.022,184.414c-0.347-0.082-0.581-0.397-0.534-0.738c0.183-1.34,0.399-2.681,0.642-3.985
							c0.068-0.366,0.44-0.611,0.831-0.547c0.395,0.067,0.651,0.413,0.583,0.779c-0.239,1.284-0.452,2.604-0.633,3.925
							c-0.05,0.369-0.41,0.63-0.803,0.582C306.079,184.426,306.05,184.421,306.022,184.414z"/>
					</g>
					<g>
						<path style="fill:#DCEDF9;" d="M308.903,171.355c0.382,0.1,0.605,0.472,0.498,0.83c-0.176,0.591-0.345,1.19-0.504,1.779
							c-0.184,0.68-0.361,1.375-0.526,2.066c-0.087,0.363-0.471,0.591-0.858,0.509c-0.007-0.001-0.013-0.003-0.019-0.004
							c-0.376-0.089-0.609-0.444-0.523-0.801c0.168-0.703,0.348-1.41,0.535-2.101c0.161-0.6,0.334-1.209,0.513-1.811
							c0.105-0.353,0.491-0.561,0.867-0.472C308.892,171.353,308.898,171.354,308.903,171.355z"/>
					</g>
					<g>
						<path style="fill:#DCEDF9;" d="M317.845,154.123c-0.17,0.253-0.49,0.363-0.783,0.293c-0.071-0.017-0.141-0.045-0.207-0.084
							c-0.335-0.199-0.435-0.615-0.223-0.929c0.765-1.136,1.577-2.262,2.414-3.346c0.233-0.301,0.681-0.368,1.002-0.15
							c0.32,0.218,0.392,0.639,0.16,0.941C319.388,151.909,318.594,153.011,317.845,154.123z"/>
					</g>
					<g>
						<path style="fill:#DCEDF9;" d="M353.714,127.81c-1.309,0.42-2.637,0.891-3.948,1.399c-0.148,0.057-0.305,0.065-0.449,0.031
							c-0.213-0.051-0.397-0.191-0.488-0.396c-0.151-0.344,0.023-0.738,0.389-0.879c1.338-0.519,2.695-0.999,4.032-1.428
							c0.375-0.12,0.783,0.068,0.911,0.42C354.289,127.306,354.089,127.689,353.714,127.81z"/>
					</g>
					<g>
						<path style="fill:#DCEDF9;" d="M342.168,132.657c-0.167,0.087-0.355,0.105-0.526,0.065c-0.185-0.044-0.35-0.156-0.45-0.325
							c-0.193-0.325-0.069-0.735,0.277-0.917c1.248-0.654,2.533-1.281,3.819-1.865c0.357-0.162,0.785-0.022,0.958,0.313
							c0.173,0.335,0.023,0.738-0.334,0.9C344.651,131.4,343.392,132.016,342.168,132.657z"/>
					</g>
					<g>
						<path style="fill:#DCEDF9;" d="M328.561,141.959c-0.185,0.163-0.438,0.216-0.667,0.161c-0.128-0.031-0.25-0.095-0.347-0.193
							c-0.271-0.271-0.256-0.698,0.033-0.952c1.041-0.915,2.129-1.813,3.233-2.669c0.306-0.237,0.758-0.197,1.01,0.09
							c0.252,0.287,0.209,0.712-0.096,0.948C330.645,140.184,329.58,141.063,328.561,141.959z"/>
					</g>
					<g>
						<path style="fill:#DCEDF9;" d="M335.06,136.921c-0.179,0.123-0.399,0.156-0.599,0.108c-0.157-0.037-0.301-0.124-0.404-0.257
							c-0.233-0.301-0.162-0.722,0.158-0.941c1.151-0.786,2.348-1.552,3.558-2.277c0.334-0.201,0.778-0.108,0.991,0.205
							c0.213,0.313,0.115,0.73-0.219,0.93C337.36,135.4,336.188,136.15,335.06,136.921z"/>
					</g>
					<g>
						<path style="fill:#DCEDF9;" d="M322.788,147.721c-0.183,0.207-0.469,0.286-0.729,0.224c-0.1-0.024-0.196-0.068-0.281-0.134
							c-0.305-0.237-0.348-0.662-0.095-0.948c0.911-1.034,1.869-2.054,2.848-3.031c0.271-0.271,0.725-0.284,1.014-0.029
							c0.289,0.255,0.303,0.681,0.031,0.952C324.618,145.711,323.68,146.709,322.788,147.721z"/>
					</g>
				</g>
			</g>
			<g>
				<g>
					<g>
						<polygon style="fill:#008EFF;" points="358.097,122.105 356.646,110.879 394.681,116.333 						"/>
					</g>
					<g>
						<polygon style="fill:#0077EB;" points="394.681,116.332 359.545,124.963 359.452,124.987 357.687,127.01 358.097,122.105 
													"/>
					</g>
					<g>
						<polygon style="fill:#0059D3;" points="357.687,127.01 360.844,126.971 359.452,124.987 						"/>
					</g>
					<g>
						<polygon style="fill:#008EFF;" points="363.873,123.9 359.451,124.987 366.643,135.227 394.681,116.333 						"/>
					</g>
				</g>
			</g>
		</g>
	</g>
</g>
<g id="DESIGNED_BY_FREEPIK">
	<g>
		<g id="XMLID_1_">
			<g id="XMLID_20_">
				<path id="XMLID_28_" style="fill:#112129;" d="M260.104,465.465c-0.432,0.443-0.803,0.931-1.108,1.453l-0.465-0.241
					c-0.067-0.298-0.349-0.503-0.659-0.466c-0.331,0.039-0.568,0.339-0.529,0.67c0.039,0.331,0.339,0.568,0.67,0.529
					c0.065-0.008,0.127-0.026,0.183-0.052l0.452,0.234c-0.251,0.554-0.433,1.139-0.539,1.744l0.747,0.132
					c0.23-1.306,0.85-2.507,1.792-3.473L260.104,465.465z"/>
				<path id="XMLID_27_" style="fill:#112129;" d="M265.592,463.163c-0.171,0-0.341,0.006-0.51,0.017l-0.074-0.626
					c0.188-0.149,0.296-0.389,0.266-0.645c-0.046-0.393-0.402-0.674-0.795-0.628c-0.393,0.046-0.674,0.402-0.628,0.795
					c0.03,0.254,0.189,0.461,0.405,0.564l0.073,0.624c-0.714,0.116-1.403,0.332-2.06,0.646l0.327,0.684
					c0.934-0.447,1.942-0.673,2.995-0.673c0.496,0,0.993,0.053,1.475,0.158l0.161-0.741
					C266.692,463.222,266.142,463.163,265.592,463.163z"/>
				<path id="XMLID_26_" style="fill:#112129;" d="M272.194,465.711c0.331-0.04,0.566-0.341,0.526-0.672
					c-0.04-0.331-0.341-0.566-0.672-0.526c-0.309,0.038-0.535,0.304-0.53,0.609l-0.416,0.363c-0.418-0.43-0.89-0.813-1.408-1.139
					l-0.404,0.641c1.134,0.715,2.021,1.726,2.563,2.925l0.691-0.313c-0.251-0.554-0.568-1.072-0.942-1.545l0.402-0.351
					C272.065,465.716,272.129,465.719,272.194,465.711z"/>
				<path id="XMLID_25_" style="fill:#112129;" d="M265.044,473.372c-0.386,0.023-0.775,0.035-1.157,0.035
					c-0.88,0-1.733-0.061-2.478-0.179c-0.39-0.062-0.846-0.155-1.27-0.292c1.046,1.861,3.069,3.125,5.388,3.125
					c2.855,0,5.262-1.916,5.95-4.504c-0.682,0.449-1.505,0.825-2.459,1.123C267.839,473.047,266.464,473.286,265.044,473.372z"/>
				<path id="XMLID_21_" style="fill:#112129;" d="M265.592,464.68c-3.352,0-6.08,2.666-6.08,5.943c0,0.426,0.046,0.849,0.137,1.261
					c0.673,0.483,2.706,0.89,5.348,0.731c2.879-0.173,5.297-0.957,6.672-2.159c-0.005-0.195-0.021-0.39-0.045-0.582
					C271.244,466.913,268.65,464.68,265.592,464.68z M263.432,471.194c-1.02,0-1.85-0.83-1.85-1.85c0-1.02,0.83-1.85,1.85-1.85
					c1.02,0,1.85,0.83,1.85,1.85C265.282,470.365,264.452,471.194,263.432,471.194z M268.17,470.286c-0.75,0-1.36-0.61-1.36-1.36
					s0.61-1.361,1.36-1.361c0.75,0,1.361,0.61,1.361,1.361S268.92,470.286,268.17,470.286z"/>
			</g>
			<path id="XMLID_18_" style="fill:#112129;" d="M281.595,466.547c-0.295-0.116-0.805-0.309-1.382-0.237
				c-0.551,0.069-0.844,0.341-0.844,1.007v0.866h2.228v1.717h-2.228v5.455h-1.932v-5.455h-1.34v-1.717h1.34v-0.888
				c0-1.68,0.896-2.783,2.568-2.783c0.643,0,1.157,0.122,1.59,0.308L281.595,466.547z"/>
			<path id="XMLID_16_" style="fill:#112129;" d="M286.298,469.879c-0.177-0.03-0.358-0.046-0.526-0.046
				c-0.896,0-1.51,0.548-1.51,1.614v3.908h-1.932v-7.172h1.873v0.785c0.451-0.673,1.14-0.977,2.021-0.977
				c0.414,0,0.848,0.128,1.094,0.337L286.298,469.879z"/>
			<path id="XMLID_13_" style="fill:#112129;" d="M293.965,471.757c0,0.222-0.015,0.489-0.037,0.651h-5.085
				c0.207,1.036,0.933,1.488,1.843,1.488c0.622,0,1.295-0.252,1.813-0.688l1.132,1.243c-0.814,0.748-1.85,1.088-3.057,1.088
				c-2.198,0-3.723-1.495-3.723-3.753c0-2.258,1.48-3.797,3.627-3.797C292.544,467.99,293.958,469.522,293.965,471.757z
				 M288.851,471.091h3.175c-0.177-0.918-0.733-1.436-1.562-1.436C289.554,469.655,289.021,470.203,288.851,471.091z"/>
			<path id="XMLID_10_" style="fill:#112129;" d="M301.618,471.757c0,0.222-0.015,0.489-0.037,0.651h-5.085
				c0.207,1.036,0.933,1.488,1.843,1.488c0.622,0,1.295-0.252,1.813-0.688l1.132,1.243c-0.814,0.748-1.85,1.088-3.057,1.088
				c-2.198,0-3.723-1.495-3.723-3.753c0-2.258,1.48-3.797,3.627-3.797C300.197,467.99,301.611,469.522,301.618,471.757z
				 M296.504,471.091h3.175c-0.178-0.918-0.733-1.436-1.562-1.436C297.207,469.655,296.674,470.203,296.504,471.091z"/>
			<path id="XMLID_7_" style="fill:#112129;" d="M309.964,471.764c0,2.154-1.495,3.775-3.471,3.775
				c-0.962,0-1.643-0.378-2.109-0.933v3.708h-1.924v-10.133h1.887v0.792c0.466-0.585,1.155-0.984,2.139-0.984
				C308.469,467.99,309.964,469.61,309.964,471.764z M304.287,471.764c0,1.132,0.747,1.976,1.843,1.976
				c1.14,0,1.85-0.881,1.85-1.976c0-1.095-0.71-1.976-1.85-1.976C305.035,469.788,304.287,470.632,304.287,471.764z"/>
			<path id="XMLID_4_" style="fill:#112129;" d="M313.068,465.836c0,0.696-0.54,1.229-1.236,1.229c-0.696,0-1.229-0.533-1.229-1.229
				c0-0.696,0.533-1.243,1.229-1.243C312.527,464.592,313.068,465.14,313.068,465.836z M312.809,475.354h-1.932v-7.172h1.932
				V475.354z"/>
			<path id="XMLID_2_" style="fill:#112129;" d="M316.032,470.736l2.701-2.554h2.368l-3.479,3.375l3.501,3.797h-2.376l-2.716-2.901
				v2.901H314.1v-10.658h1.932V470.736z"/>
		</g>
		<g>
			<path style="fill:#112129;" d="M184.412,475.289v-1.055c-0.527,0.718-1.391,1.23-2.387,1.23c-1.846,0-3.149-1.406-3.149-3.706
				c0-2.256,1.289-3.721,3.149-3.721c0.952,0,1.816,0.469,2.387,1.245v-3.765h1.099v9.77H184.412z M184.412,473.37v-3.208
				c-0.395-0.615-1.245-1.143-2.124-1.143c-1.421,0-2.27,1.172-2.27,2.739c0,1.567,0.85,2.724,2.27,2.724
				C183.168,474.483,184.017,473.986,184.412,473.37z"/>
			<path style="fill:#112129;" d="M186.932,471.744c0-2.051,1.465-3.706,3.486-3.706c2.139,0,3.398,1.67,3.398,3.794v0.279h-5.727
				c0.088,1.333,1.025,2.446,2.549,2.446c0.805,0,1.626-0.322,2.182-0.894l0.527,0.718c-0.703,0.703-1.655,1.084-2.812,1.084
				C188.44,475.465,186.932,473.956,186.932,471.744z M190.403,468.947c-1.509,0-2.256,1.274-2.314,2.358h4.643
				C192.718,470.25,192.015,468.947,190.403,468.947z"/>
			<path style="fill:#112129;" d="M194.607,474.351l0.571-0.791c0.469,0.542,1.362,1.011,2.329,1.011c1.084,0,1.67-0.513,1.67-1.216
				c0-1.714-4.38-0.659-4.38-3.281c0-1.098,0.952-2.036,2.636-2.036c1.201,0,2.051,0.454,2.622,1.026l-0.513,0.762
				c-0.424-0.513-1.201-0.894-2.109-0.894c-0.967,0-1.567,0.483-1.567,1.113c0,1.552,4.38,0.527,4.38,3.281
				c0,1.187-0.952,2.138-2.783,2.138C196.306,475.465,195.325,475.113,194.607,474.351z"/>
			<path style="fill:#112129;" d="M201.477,466.471c0-0.41,0.337-0.747,0.732-0.747c0.41,0,0.747,0.337,0.747,0.747
				c0,0.41-0.337,0.732-0.747,0.732C201.814,467.203,201.477,466.881,201.477,466.471z M201.667,475.289v-7.075h1.099v7.075H201.667
				z"/>
			<path style="fill:#112129;" d="M204.582,477.105l0.556-0.82c0.586,0.703,1.289,0.967,2.3,0.967c1.172,0,2.27-0.571,2.27-2.124
				v-1.011c-0.513,0.718-1.377,1.26-2.373,1.26c-1.845,0-3.149-1.377-3.149-3.662c0-2.27,1.289-3.677,3.149-3.677
				c0.952,0,1.802,0.469,2.373,1.245v-1.069h1.098v6.87c0,2.344-1.641,3.076-3.369,3.076
				C206.237,478.16,205.417,477.926,204.582,477.105z M209.709,473.253v-3.091c-0.381-0.615-1.23-1.143-2.109-1.143
				c-1.421,0-2.27,1.128-2.27,2.695c0,1.553,0.849,2.695,2.27,2.695C208.478,474.41,209.328,473.868,209.709,473.253z"/>
			<path style="fill:#112129;" d="M217.413,475.289v-4.629c0-1.245-0.63-1.641-1.582-1.641c-0.865,0-1.685,0.527-2.095,1.099v5.17
				h-1.099v-7.075h1.099v1.025c0.498-0.586,1.465-1.201,2.519-1.201c1.48,0,2.256,0.747,2.256,2.285v4.966H217.413z"/>
			<path style="fill:#112129;" d="M219.932,471.744c0-2.051,1.465-3.706,3.486-3.706c2.139,0,3.398,1.67,3.398,3.794v0.279h-5.727
				c0.088,1.333,1.025,2.446,2.549,2.446c0.806,0,1.626-0.322,2.183-0.894l0.527,0.718c-0.703,0.703-1.655,1.084-2.812,1.084
				C221.441,475.465,219.932,473.956,219.932,471.744z M223.404,468.947c-1.509,0-2.256,1.274-2.314,2.358h4.643
				C225.718,470.25,225.015,468.947,223.404,468.947z"/>
			<path style="fill:#112129;" d="M233.35,475.289v-1.055c-0.527,0.718-1.392,1.23-2.388,1.23c-1.846,0-3.149-1.406-3.149-3.706
				c0-2.256,1.289-3.721,3.149-3.721c0.952,0,1.817,0.469,2.388,1.245v-3.765h1.098v9.77H233.35z M233.35,473.37v-3.208
				c-0.396-0.615-1.245-1.143-2.124-1.143c-1.421,0-2.27,1.172-2.27,2.739c0,1.567,0.849,2.724,2.27,2.724
				C232.105,474.483,232.954,473.986,233.35,473.37z"/>
			<path style="fill:#112129;" d="M239.692,475.289v-9.77h1.098v3.765c0.572-0.776,1.421-1.245,2.388-1.245
				c1.845,0,3.149,1.465,3.149,3.721c0,2.299-1.304,3.706-3.149,3.706c-0.996,0-1.86-0.513-2.388-1.23v1.055H239.692z
				 M242.9,474.483c1.436,0,2.285-1.157,2.285-2.724c0-1.568-0.85-2.739-2.285-2.739c-0.864,0-1.728,0.527-2.109,1.143v3.208
				C241.171,473.986,242.036,474.483,242.9,474.483z"/>
			<path style="fill:#112129;" d="M247.528,477.061c0.161,0.073,0.425,0.117,0.601,0.117c0.483,0,0.805-0.161,1.055-0.747
				l0.469-1.069l-2.959-7.148h1.187l2.358,5.8l2.344-5.8h1.201l-3.545,8.51c-0.425,1.025-1.143,1.421-2.08,1.435
				c-0.234,0-0.601-0.044-0.806-0.103L247.528,477.061z"/>
		</g>
	</g>
</g>
</svg>
